<?xml version="1.0" encoding="UTF-8"?>
<!DOCTYPE svg PUBLIC "-//W3C//DTD SVG 1.1//EN" "http://www.w3.org/Graphics/SVG/1.1/DTD/svg11.dtd">
<svg xmlns="http://www.w3.org/2000/svg" version="1.1" width="448px" height="560px" style="shape-rendering:geometricPrecision; text-rendering:geometricPrecision; image-rendering:optimizeQuality; fill-rule:evenodd; clip-rule:evenodd" xmlns:xlink="http://www.w3.org/1999/xlink">
<g><path style="opacity:0.925" fill="#737373" d="M 214.5,0.5 C 207.691,1.65249 200.691,2.31916 193.5,2.5C 200.27,0.925266 207.27,0.258599 214.5,0.5 Z"/></g>
<g><path style="opacity:1" fill="#090909" d="M 214.5,-0.5 C 215.167,-0.5 215.833,-0.5 216.5,-0.5C 216.833,0.833333 217.167,0.833333 217.5,-0.5C 219.5,-0.5 221.5,-0.5 223.5,-0.5C 228.698,0.258781 234.031,0.925447 239.5,1.5C 242.909,2.90341 246.575,3.57007 250.5,3.5C 256.17,3.91737 261.503,5.25071 266.5,7.5C 268.214,8.73838 270.214,9.40505 272.5,9.5C 284.613,13.2237 295.946,18.5571 306.5,25.5C 307.035,27.4456 308.368,28.4456 310.5,28.5C 321.481,35.1799 331.148,43.5132 339.5,53.5C 339.738,55.4044 340.738,56.7377 342.5,57.5C 343.5,57.8333 344.167,58.5 344.5,59.5C 344.427,61.0269 345.094,62.0269 346.5,62.5C 347.167,62.5 347.5,62.8333 347.5,63.5C 347.738,65.4044 348.738,66.7377 350.5,67.5C 350.427,69.0269 351.094,70.0269 352.5,70.5C 352.427,72.0269 353.094,73.0269 354.5,73.5C 355.906,73.9731 356.573,74.9731 356.5,76.5C 356.427,78.0269 357.094,79.0269 358.5,79.5C 359.674,80.5137 360.34,81.847 360.5,83.5C 360.427,85.0269 361.094,86.0269 362.5,86.5C 365.616,91.0697 367.95,96.0697 369.5,101.5C 369.12,103.698 369.787,105.365 371.5,106.5C 372.566,108.701 373.233,111.035 373.5,113.5C 373.41,116.152 374.076,118.485 375.5,120.5C 385.382,157.04 382.549,192.707 367,227.5C 365.143,230.2 362.643,231.866 359.5,232.5C 355.466,232.495 351.466,232.162 347.5,231.5C 343.106,229.87 338.772,228.37 334.5,227C 313.284,263.118 281.95,284.618 240.5,291.5C 226.833,292.833 213.167,292.833 199.5,291.5C 193.187,291.086 187.187,289.752 181.5,287.5C 179.898,285.926 177.898,285.259 175.5,285.5C 174.391,285.443 173.391,285.11 172.5,284.5C 171.365,282.787 169.698,282.12 167.5,282.5C 163.849,281.341 160.515,279.674 157.5,277.5C 157.027,276.094 156.027,275.427 154.5,275.5C 148.951,272.944 143.951,269.61 139.5,265.5C 139.027,264.094 138.027,263.427 136.5,263.5C 135.5,263.167 134.833,262.5 134.5,261.5C 133.415,259.413 131.749,258.08 129.5,257.5C 126.5,255.167 123.833,252.5 121.5,249.5C 121.586,248.504 121.252,247.671 120.5,247C 110.172,246.5 99.8387,246.334 89.5,246.5C 87.901,246.768 86.5676,246.434 85.5,245.5C 85.0269,244.094 84.0269,243.427 82.5,243.5C 82.0269,242.094 81.0269,241.427 79.5,241.5C 72.858,230.212 67.858,218.212 64.5,205.5C 64.8294,202.772 64.1628,200.438 62.5,198.5C 62.5,197.833 62.5,197.167 62.5,196.5C 62.0431,190.28 61.0431,184.28 59.5,178.5C 57.0136,158.063 58.6803,138.063 64.5,118.5C 66.2766,115.495 67.2766,112.162 67.5,108.5C 70.0407,100.425 73.3741,92.7587 77.5,85.5C 78.9063,85.0269 79.573,84.0269 79.5,82.5C 80.0787,79.6689 81.412,77.3356 83.5,75.5C 84.9063,75.0269 85.573,74.0269 85.5,72.5C 86.9063,72.0269 87.573,71.0269 87.5,69.5C 89.2624,68.7377 90.2624,67.4044 90.5,65.5C 91.9063,65.0269 92.573,64.0269 92.5,62.5C 92.8333,61.5 93.5,60.8333 94.5,60.5C 96.2624,59.7377 97.2624,58.4044 97.5,56.5C 98.4023,54.6593 99.7356,53.326 101.5,52.5C 104.833,49.8333 107.833,46.8333 110.5,43.5C 110.833,42.5 111.5,41.8333 112.5,41.5C 115.089,40.5806 117.089,38.914 118.5,36.5C 120.749,35.9202 122.415,34.5869 123.5,32.5C 125.404,32.2624 126.738,31.2624 127.5,29.5C 129.027,29.573 130.027,28.9063 130.5,27.5C 132.027,27.573 133.027,26.9063 133.5,25.5C 135.027,25.573 136.027,24.9063 136.5,23.5C 137.514,22.3263 138.847,21.6596 140.5,21.5C 142.027,21.573 143.027,20.9063 143.5,19.5C 149.624,15.4408 156.29,12.4408 163.5,10.5C 169.166,9.60963 174.5,7.94296 179.5,5.5C 183.889,3.75376 188.556,2.75376 193.5,2.5C 200.691,2.31916 207.691,1.65249 214.5,0.5C 214.5,0.166667 214.5,-0.166667 214.5,-0.5 Z M 234.5,30.5 C 237.946,31.6874 241.613,32.3541 245.5,32.5C 248.728,33.5456 252.061,34.2122 255.5,34.5C 256.93,35.5375 258.597,36.2041 260.5,36.5C 262.421,37.3627 264.421,38.0293 266.5,38.5C 267.93,39.5375 269.597,40.2041 271.5,40.5C 274.979,42.4031 278.646,44.0698 282.5,45.5C 282.973,46.9063 283.973,47.573 285.5,47.5C 286.514,48.6737 287.847,49.3404 289.5,49.5C 289.973,50.9063 290.973,51.573 292.5,51.5C 292.973,52.9063 293.973,53.573 295.5,53.5C 295.973,54.9063 296.973,55.573 298.5,55.5C 298.5,56.1667 298.833,56.5 299.5,56.5C 300.262,58.2624 301.596,59.2624 303.5,59.5C 303.833,60.5 304.5,61.1667 305.5,61.5C 306.911,63.914 308.911,65.5806 311.5,66.5C 312.167,67.5 312.833,68.5 313.5,69.5C 313.973,70.9063 314.973,71.573 316.5,71.5C 319.84,75.8387 323.174,80.172 326.5,84.5C 327.026,86.2303 328.026,87.5637 329.5,88.5C 339.503,104.502 346.169,121.835 349.5,140.5C 349.934,145.668 350.6,150.668 351.5,155.5C 351.367,168.633 350.033,181.633 347.5,194.5C 346.9,195.9 345.9,196.9 344.5,197.5C 342.819,195.992 340.819,194.992 338.5,194.5C 337.71,193.599 336.71,192.932 335.5,192.5C 333.302,190.902 330.969,189.569 328.5,188.5C 327.564,187.026 326.23,186.026 324.5,185.5C 320.524,182.531 316.524,179.531 312.5,176.5C 312.027,175.094 311.027,174.427 309.5,174.5C 308.833,173.167 307.833,172.167 306.5,171.5C 305.5,169.833 304.167,168.5 302.5,167.5C 300.5,165.833 298.5,164.167 296.5,162.5C 295.581,159.911 293.914,157.911 291.5,156.5C 290.5,154.833 289.167,153.5 287.5,152.5C 287.573,150.973 286.906,149.973 285.5,149.5C 282.44,144.572 278.774,140.072 274.5,136C 269.262,133.856 264.262,134.023 259.5,136.5C 257.973,136.427 256.973,137.094 256.5,138.5C 254.738,139.262 253.738,140.596 253.5,142.5C 251.738,143.262 250.738,144.596 250.5,146.5C 248.738,147.262 247.738,148.596 247.5,150.5C 246.5,150.833 245.833,151.5 245.5,152.5C 243.413,153.585 242.08,155.251 241.5,157.5C 236.5,161.833 231.833,166.5 227.5,171.5C 224.911,172.419 222.911,174.086 221.5,176.5C 219.251,177.08 217.585,178.413 216.5,180.5C 213.883,181.786 211.55,183.453 209.5,185.5C 207.973,185.427 206.973,186.094 206.5,187.5C 204.973,187.427 203.973,188.094 203.5,189.5C 202.508,189.328 201.842,189.662 201.5,190.5C 199.973,190.427 198.973,191.094 198.5,192.5C 197.508,192.328 196.842,192.662 196.5,193.5C 194.973,193.427 193.973,194.094 193.5,195.5C 183.588,200.241 173.588,204.574 163.5,208.5C 159.884,208.899 156.55,209.899 153.5,211.5C 146.78,212.711 140.113,214.044 133.5,215.5C 122.536,216.677 111.536,217.343 100.5,217.5C 99.3611,214.082 98.0277,210.749 96.5,207.5C 96.2041,205.597 95.5375,203.93 94.5,202.5C 94.405,200.214 93.7384,198.214 92.5,196.5C 91.0071,188.391 89.6737,180.391 88.5,172.5C 88.4283,161.817 88.7616,151.15 89.5,140.5C 90.8632,136.368 91.8632,132.035 92.5,127.5C 106.879,80.6207 137.546,49.7874 184.5,35C 200.922,30.9902 217.588,29.4902 234.5,30.5 Z M 285.5,192.5 C 286.585,194.587 288.251,195.92 290.5,196.5C 290.833,197.5 291.5,198.167 292.5,198.5C 293.262,200.262 294.596,201.262 296.5,201.5C 298.8,203.984 301.467,205.984 304.5,207.5C 304.973,208.906 305.973,209.573 307.5,209.5C 308.562,211.099 308.562,212.766 307.5,214.5C 306.094,214.973 305.427,215.973 305.5,217.5C 304.094,217.973 303.427,218.973 303.5,220.5C 301.738,221.262 300.738,222.596 300.5,224.5C 298.086,225.911 296.419,227.911 295.5,230.5C 292.833,232.5 290.5,234.833 288.5,237.5C 286.251,238.08 284.585,239.413 283.5,241.5C 280.129,243.846 276.796,246.179 273.5,248.5C 271.973,248.427 270.973,249.094 270.5,250.5C 265.978,252.264 261.645,254.264 257.5,256.5C 254.603,257.129 251.936,258.129 249.5,259.5C 246.572,259.565 243.905,260.232 241.5,261.5C 236.972,261.77 232.639,262.437 228.5,263.5C 216.73,263.599 205.063,262.599 193.5,260.5C 185.308,257.741 177.308,254.408 169.5,250.5C 168.71,249.599 167.71,248.932 166.5,248.5C 164.999,247.248 163.332,246.248 161.5,245.5C 160.564,244.026 159.23,243.026 157.5,242.5C 157.833,241.833 158.167,241.167 158.5,240.5C 201.393,229.574 237.393,207.574 266.5,174.5C 272.854,180.522 279.187,186.522 285.5,192.5 Z"/></g>
<g><path style="opacity:0.702" fill="#888888" d="M 239.5,1.5 C 243.425,1.42993 247.091,2.09659 250.5,3.5C 246.575,3.57007 242.909,2.90341 239.5,1.5 Z"/></g>
<g><path style="opacity:0.016" fill="#979797" d="M 266.5,7.5 C 268.898,7.25939 270.898,7.92606 272.5,9.5C 270.214,9.40505 268.214,8.73838 266.5,7.5 Z"/></g>
<g><path style="opacity:0.996" fill="#595959" d="M 179.5,5.5 C 174.5,7.94296 169.166,9.60963 163.5,10.5C 168.5,8.05704 173.834,6.39037 179.5,5.5 Z"/></g>
<g><path style="opacity:0.973" fill="#676767" d="M 143.5,19.5 C 143.027,20.9063 142.027,21.573 140.5,21.5C 140.973,20.0937 141.973,19.427 143.5,19.5 Z"/></g>
<g><path style="opacity:0.945" fill="#797979" d="M 136.5,23.5 C 136.027,24.9063 135.027,25.573 133.5,25.5C 133.973,24.0937 134.973,23.427 136.5,23.5 Z"/></g>
<g><path style="opacity:0.969" fill="#6a6a6a" d="M 133.5,25.5 C 133.027,26.9063 132.027,27.573 130.5,27.5C 130.973,26.0937 131.973,25.427 133.5,25.5 Z"/></g>
<g><path style="opacity:0.996" fill="#6e6e6e" d="M 306.5,25.5 C 308.23,26.0256 309.564,27.0256 310.5,28.5C 308.368,28.4456 307.035,27.4456 306.5,25.5 Z"/></g>
<g><path style="opacity:0.973" fill="#676767" d="M 130.5,27.5 C 130.027,28.9063 129.027,29.573 127.5,29.5C 127.973,28.0937 128.973,27.427 130.5,27.5 Z"/></g>
<g><path style="opacity:0.941" fill="#6c6c6c" d="M 127.5,29.5 C 126.738,31.2624 125.404,32.2624 123.5,32.5C 124.262,30.7376 125.596,29.7376 127.5,29.5 Z"/></g>
<g><path style="opacity:0.62" fill="#979797" d="M 234.5,30.5 C 238.458,30.2511 242.124,30.9177 245.5,32.5C 241.613,32.3541 237.946,31.6874 234.5,30.5 Z"/></g>
<g><path style="opacity:0.969" fill="#626262" d="M 255.5,34.5 C 257.698,34.1201 259.365,34.7868 260.5,36.5C 258.597,36.2041 256.93,35.5375 255.5,34.5 Z"/></g>
<g><path style="opacity:1" fill="#4a4a4a" d="M 123.5,32.5 C 122.415,34.5869 120.749,35.9202 118.5,36.5C 119.585,34.4131 121.251,33.0798 123.5,32.5 Z"/></g>
<g><path style="opacity:0.965" fill="#646464" d="M 266.5,38.5 C 268.698,38.1201 270.365,38.7868 271.5,40.5C 269.597,40.2041 267.93,39.5375 266.5,38.5 Z"/></g>
<g><path style="opacity:0.992" fill="#4f4f4f" d="M 118.5,36.5 C 117.089,38.914 115.089,40.5806 112.5,41.5C 113.911,39.086 115.911,37.4194 118.5,36.5 Z"/></g>
<g><path style="opacity:0.659" fill="#898989" d="M 282.5,45.5 C 284.027,45.427 285.027,46.0937 285.5,47.5C 283.973,47.573 282.973,46.9063 282.5,45.5 Z"/></g>
<g><path style="opacity:0.965" fill="#6b6b6b" d="M 110.5,43.5 C 107.833,46.8333 104.833,49.8333 101.5,52.5C 103.5,48.5 106.5,45.5 110.5,43.5 Z"/></g>
<g><path style="opacity:0.827" fill="#6f6f6f" d="M 289.5,49.5 C 291.027,49.427 292.027,50.0937 292.5,51.5C 290.973,51.573 289.973,50.9063 289.5,49.5 Z"/></g>
<g><path style="opacity:0.847" fill="#6d6d6d" d="M 292.5,51.5 C 294.027,51.427 295.027,52.0937 295.5,53.5C 293.973,53.573 292.973,52.9063 292.5,51.5 Z"/></g>
<g><path style="opacity:0.89" fill="#626262" d="M 295.5,53.5 C 297.027,53.427 298.027,54.0937 298.5,55.5C 296.973,55.573 295.973,54.9063 295.5,53.5 Z"/></g>
<g><path style="opacity:0.957" fill="#7e7e7e" d="M 339.5,53.5 C 341.262,54.2623 342.262,55.5956 342.5,57.5C 340.738,56.7377 339.738,55.4044 339.5,53.5 Z"/></g>
<g><path style="opacity:0.953" fill="#6b6b6b" d="M 299.5,56.5 C 301.404,56.7376 302.738,57.7376 303.5,59.5C 301.596,59.2624 300.262,58.2624 299.5,56.5 Z"/></g>
<g><path style="opacity:0.98" fill="#6b6b6b" d="M 97.5,56.5 C 97.2624,58.4044 96.2624,59.7377 94.5,60.5C 94.7376,58.5956 95.7376,57.2623 97.5,56.5 Z"/></g>
<g><path style="opacity:0.969" fill="#6d6d6d" d="M 344.5,59.5 C 345.906,59.9731 346.573,60.9731 346.5,62.5C 345.094,62.0269 344.427,61.0269 344.5,59.5 Z"/></g>
<g><path style="opacity:0.945" fill="#7c7c7c" d="M 305.5,61.5 C 308.089,62.4194 310.089,64.086 311.5,66.5C 308.911,65.5806 306.911,63.914 305.5,61.5 Z"/></g>
<g><path style="opacity:0.949" fill="#7d7d7d" d="M 92.5,62.5 C 92.573,64.0269 91.9063,65.0269 90.5,65.5C 90.427,63.9731 91.0937,62.9731 92.5,62.5 Z"/></g>
<g><path style="opacity:0.988" fill="#6c6c6c" d="M 347.5,63.5 C 349.262,64.2623 350.262,65.5956 350.5,67.5C 348.738,66.7377 347.738,65.4044 347.5,63.5 Z"/></g>
<g><path style="opacity:0.906" fill="#727272" d="M 90.5,65.5 C 90.2624,67.4044 89.2624,68.7377 87.5,69.5C 87.7376,67.5956 88.7376,66.2623 90.5,65.5 Z"/></g>
<g><path style="opacity:0.839" fill="#8a8a8a" d="M 313.5,69.5 C 315.027,69.427 316.027,70.0937 316.5,71.5C 314.973,71.573 313.973,70.9063 313.5,69.5 Z"/></g>
<g><path style="opacity:0.906" fill="#6a6a6a" d="M 350.5,67.5 C 351.906,67.9731 352.573,68.9731 352.5,70.5C 351.094,70.0269 350.427,69.0269 350.5,67.5 Z"/></g>
<g><path style="opacity:0.835" fill="#7f7f7f" d="M 87.5,69.5 C 87.573,71.0269 86.9063,72.0269 85.5,72.5C 85.427,70.9731 86.0937,69.9731 87.5,69.5 Z"/></g>
<g><path style="opacity:0.882" fill="#6a6a6a" d="M 352.5,70.5 C 353.906,70.9731 354.573,71.9731 354.5,73.5C 353.094,73.0269 352.427,72.0269 352.5,70.5 Z"/></g>
<g><path style="opacity:0.765" fill="#868686" d="M 85.5,72.5 C 85.573,74.0269 84.9063,75.0269 83.5,75.5C 83.427,73.9731 84.0937,72.9731 85.5,72.5 Z"/></g>
<g><path style="opacity:0.792" fill="#7c7c7c" d="M 356.5,76.5 C 357.906,76.9731 358.573,77.9731 358.5,79.5C 357.094,79.0269 356.427,78.0269 356.5,76.5 Z"/></g>
<g><path style="opacity:0.737" fill="#878787" d="M 79.5,82.5 C 79.573,84.0269 78.9063,85.0269 77.5,85.5C 77.427,83.9731 78.0937,82.9731 79.5,82.5 Z"/></g>
<g><path style="opacity:0.976" fill="#6c6c6c" d="M 326.5,84.5 C 328.446,85.0347 329.446,86.368 329.5,88.5C 328.026,87.5637 327.026,86.2303 326.5,84.5 Z"/></g>
<g><path style="opacity:0.816" fill="#767676" d="M 360.5,83.5 C 361.906,83.9731 362.573,84.9731 362.5,86.5C 361.094,86.0269 360.427,85.0269 360.5,83.5 Z"/></g>
<g><path style="opacity:0.992" fill="#686868" d="M 369.5,101.5 C 370.537,102.93 371.204,104.597 371.5,106.5C 369.787,105.365 369.12,103.698 369.5,101.5 Z"/></g>
<g><path style="opacity:0.988" fill="#727272" d="M 67.5,108.5 C 67.2766,112.162 66.2766,115.495 64.5,118.5C 64.7234,114.838 65.7234,111.505 67.5,108.5 Z"/></g>
<g><path style="opacity:0.992" fill="#636363" d="M 373.5,113.5 C 374.924,115.515 375.59,117.848 375.5,120.5C 374.076,118.485 373.41,116.152 373.5,113.5 Z"/></g>
<g><path style="opacity:0.945" fill="#6f6f6f" d="M 92.5,127.5 C 91.8632,132.035 90.8632,136.368 89.5,140.5C 89.3738,135.778 90.3738,131.445 92.5,127.5 Z"/></g>
<g><path style="opacity:0.941" fill="#676767" d="M 259.5,136.5 C 259.027,137.906 258.027,138.573 256.5,138.5C 256.973,137.094 257.973,136.427 259.5,136.5 Z"/></g>
<g><path style="opacity:0.953" fill="#717171" d="M 256.5,138.5 C 256.262,140.404 255.262,141.738 253.5,142.5C 253.738,140.596 254.738,139.262 256.5,138.5 Z"/></g>
<g><path style="opacity:0.949" fill="#727272" d="M 253.5,142.5 C 253.262,144.404 252.262,145.738 250.5,146.5C 250.738,144.596 251.738,143.262 253.5,142.5 Z"/></g>
<g><path style="opacity:0.773" fill="#909090" d="M 349.5,140.5 C 350.268,141.263 350.768,142.263 351,143.5C 351.499,147.486 351.666,151.486 351.5,155.5C 350.6,150.668 349.934,145.668 349.5,140.5 Z"/></g>
<g><path style="opacity:0.957" fill="#676767" d="M 250.5,146.5 C 250.262,148.404 249.262,149.738 247.5,150.5C 247.738,148.596 248.738,147.262 250.5,146.5 Z"/></g>
<g><path style="opacity:0.929" fill="#6e6e6e" d="M 285.5,149.5 C 286.906,149.973 287.573,150.973 287.5,152.5C 286.094,152.027 285.427,151.027 285.5,149.5 Z"/></g>
<g><path style="opacity:0.659" fill="#878787" d="M 89.5,140.5 C 88.7616,151.15 88.4283,161.817 88.5,172.5C 87.8344,168.681 87.5011,164.681 87.5,160.5C 87.3897,153.608 88.0564,146.942 89.5,140.5 Z"/></g>
<g><path style="opacity:0.878" fill="#787878" d="M 245.5,152.5 C 244.92,154.749 243.587,156.415 241.5,157.5C 242.08,155.251 243.413,153.585 245.5,152.5 Z"/></g>
<g><path style="opacity:0.929" fill="#828282" d="M 291.5,156.5 C 293.914,157.911 295.581,159.911 296.5,162.5C 294.086,161.089 292.419,159.089 291.5,156.5 Z"/></g>
<g><path style="opacity:1" fill="#525252" d="M 302.5,167.5 C 304.167,168.5 305.5,169.833 306.5,171.5C 303.858,171.512 302.525,170.179 302.5,167.5 Z"/></g>
<g><path style="opacity:0.055" fill="#a5a5a5" d="M 309.5,174.5 C 311.027,174.427 312.027,175.094 312.5,176.5C 310.973,176.573 309.973,175.906 309.5,174.5 Z"/></g>
<g><path style="opacity:0.984" fill="#505050" d="M 227.5,171.5 C 226.089,173.914 224.089,175.581 221.5,176.5C 222.911,174.086 224.911,172.419 227.5,171.5 Z"/></g>
<g><path style="opacity:0.957" fill="#5a5a5a" d="M 221.5,176.5 C 220.415,178.587 218.749,179.92 216.5,180.5C 217.585,178.413 219.251,177.08 221.5,176.5 Z"/></g>
<g><path style="opacity:0.929" fill="#6e6e6e" d="M 209.5,185.5 C 209.027,186.906 208.027,187.573 206.5,187.5C 206.973,186.094 207.973,185.427 209.5,185.5 Z"/></g>
<g><path style="opacity:0.976" fill="#6d6d6d" d="M 324.5,185.5 C 326.23,186.026 327.564,187.026 328.5,188.5C 326.368,188.446 325.035,187.446 324.5,185.5 Z"/></g>
<g><path style="opacity:0.929" fill="#656565" d="M 206.5,187.5 C 206.027,188.906 205.027,189.573 203.5,189.5C 203.973,188.094 204.973,187.427 206.5,187.5 Z"/></g>
<g><path style="opacity:0.875" fill="#838383" d="M 201.5,190.5 C 201.027,191.906 200.027,192.573 198.5,192.5C 198.973,191.094 199.973,190.427 201.5,190.5 Z"/></g>
<g><path style="opacity:0.914" fill="#828282" d="M 285.5,192.5 C 287.749,193.08 289.415,194.413 290.5,196.5C 288.251,195.92 286.585,194.587 285.5,192.5 Z"/></g>
<g><path style="opacity:0.973" fill="#626262" d="M 335.5,192.5 C 336.71,192.932 337.71,193.599 338.5,194.5C 336.821,194.715 335.821,194.048 335.5,192.5 Z"/></g>
<g><path style="opacity:0.592" fill="#8e8e8e" d="M 59.5,178.5 C 61.0431,184.28 62.0431,190.28 62.5,196.5C 60.4394,190.804 59.4394,184.804 59.5,178.5 Z"/></g>
<g><path style="opacity:0.902" fill="#787878" d="M 196.5,193.5 C 196.027,194.906 195.027,195.573 193.5,195.5C 193.973,194.094 194.973,193.427 196.5,193.5 Z"/></g>
<g><path style="opacity:0.878" fill="#8d8d8d" d="M 347.5,194.5 C 347.5,195.833 347.5,197.167 347.5,198.5C 346.209,198.737 345.209,198.404 344.5,197.5C 345.9,196.9 346.9,195.9 347.5,194.5 Z"/></g>
<g><path style="opacity:0.914" fill="#787878" d="M 292.5,198.5 C 294.404,198.738 295.738,199.738 296.5,201.5C 294.596,201.262 293.262,200.262 292.5,198.5 Z"/></g>
<g><path style="opacity:0.953" fill="#6e6e6e" d="M 92.5,196.5 C 93.7384,198.214 94.405,200.214 94.5,202.5C 92.9261,200.898 92.2594,198.898 92.5,196.5 Z"/></g>
<g><path style="opacity:0.89" fill="#828282" d="M 62.5,198.5 C 64.1628,200.438 64.8294,202.772 64.5,205.5C 63.3882,203.401 62.7215,201.067 62.5,198.5 Z"/></g>
<g><path style="opacity:0.941" fill="#777777" d="M 94.5,202.5 C 95.5375,203.93 96.2041,205.597 96.5,207.5C 94.7868,206.365 94.1201,204.698 94.5,202.5 Z"/></g>
<g><path style="opacity:0.859" fill="#676767" d="M 304.5,207.5 C 306.027,207.427 307.027,208.094 307.5,209.5C 305.973,209.573 304.973,208.906 304.5,207.5 Z"/></g>
<g><path style="opacity:0.976" fill="#656565" d="M 163.5,208.5 C 160.548,210.41 157.214,211.41 153.5,211.5C 156.55,209.899 159.884,208.899 163.5,208.5 Z"/></g>
<g><path style="opacity:0.831" fill="#696969" d="M 307.5,214.5 C 307.573,216.027 306.906,217.027 305.5,217.5C 305.427,215.973 306.094,214.973 307.5,214.5 Z"/></g>
<g><path style="opacity:0.761" fill="#696969" d="M 133.5,215.5 C 128.766,217.077 123.766,217.911 118.5,218C 112.319,218.819 106.319,218.653 100.5,217.5C 111.536,217.343 122.536,216.677 133.5,215.5 Z"/></g>
<g><path style="opacity:0.831" fill="#696969" d="M 305.5,217.5 C 305.573,219.027 304.906,220.027 303.5,220.5C 303.427,218.973 304.094,217.973 305.5,217.5 Z"/></g>
<g><path style="opacity:0.906" fill="#6c6c6c" d="M 300.5,224.5 C 299.581,227.089 297.914,229.089 295.5,230.5C 296.419,227.911 298.086,225.911 300.5,224.5 Z"/></g>
<g><path style="opacity:0.78" fill="#888888" d="M 347.5,231.5 C 351.466,232.162 355.466,232.495 359.5,232.5C 358.207,233.158 356.707,233.492 355,233.5C 352.179,233.592 349.679,232.926 347.5,231.5 Z"/></g>
<g><path style="opacity:0.882" fill="#6b6b6b" d="M 288.5,237.5 C 287.415,239.587 285.749,240.92 283.5,241.5C 284.585,239.413 286.251,238.08 288.5,237.5 Z"/></g>
<g><path style="opacity:0.937" fill="#828282" d="M 79.5,241.5 C 81.0269,241.427 82.0269,242.094 82.5,243.5C 80.9731,243.573 79.9731,242.906 79.5,241.5 Z"/></g>
<g><path style="opacity:1" fill="#767676" d="M 158.5,240.5 C 158.167,241.167 157.833,241.833 157.5,242.5C 156.624,242.631 155.957,242.298 155.5,241.5C 156.325,240.614 157.325,240.281 158.5,240.5 Z"/></g>
<g><path style="opacity:0.855" fill="#6e6e6e" d="M 82.5,243.5 C 84.0269,243.427 85.0269,244.094 85.5,245.5C 83.9731,245.573 82.9731,244.906 82.5,243.5 Z"/></g>
<g><path style="opacity:0.863" fill="#727272" d="M 157.5,242.5 C 159.23,243.026 160.564,244.026 161.5,245.5C 159.368,245.446 158.035,244.446 157.5,242.5 Z"/></g>
<g><path style="opacity:0.822" fill="#8b8b8b" d="M 89.5,246.5 C 99.8387,246.334 110.172,246.5 120.5,247C 121.252,247.671 121.586,248.504 121.5,249.5C 120.711,249.217 120.044,248.717 119.5,248C 109.325,247.83 99.3249,247.33 89.5,246.5 Z"/></g>
<g><path style="opacity:0.969" fill="#646464" d="M 166.5,248.5 C 167.71,248.932 168.71,249.599 169.5,250.5C 167.821,250.715 166.821,250.048 166.5,248.5 Z"/></g>
<g><path style="opacity:0.918" fill="#6c6c6c" d="M 273.5,248.5 C 273.027,249.906 272.027,250.573 270.5,250.5C 270.973,249.094 271.973,248.427 273.5,248.5 Z"/></g>
<g><path style="opacity:0.957" fill="#828282" d="M 129.5,257.5 C 131.749,258.08 133.415,259.413 134.5,261.5C 132.251,260.92 130.585,259.587 129.5,257.5 Z"/></g>
<g><path style="opacity:0.965" fill="#4c4c4c" d="M 257.5,256.5 C 255.383,258.655 252.716,259.655 249.5,259.5C 251.936,258.129 254.603,257.129 257.5,256.5 Z"/></g>
<g><path style="opacity:0.427" fill="#888888" d="M 193.5,260.5 C 205.063,262.599 216.73,263.599 228.5,263.5C 216.625,265.26 204.959,264.26 193.5,260.5 Z"/></g>
<g><path style="opacity:0.949" fill="#646464" d="M 241.5,261.5 C 237.455,263.177 233.122,263.844 228.5,263.5C 232.639,262.437 236.972,261.77 241.5,261.5 Z"/></g>
<g><path style="opacity:0.957" fill="#727272" d="M 136.5,263.5 C 138.027,263.427 139.027,264.094 139.5,265.5C 137.973,265.573 136.973,264.906 136.5,263.5 Z"/></g>
<g><path style="opacity:0.78" fill="#7b7b7b" d="M 154.5,275.5 C 156.027,275.427 157.027,276.094 157.5,277.5C 155.973,277.573 154.973,276.906 154.5,275.5 Z"/></g>
<g><path style="opacity:0.992" fill="#696969" d="M 167.5,282.5 C 169.698,282.12 171.365,282.787 172.5,284.5C 170.597,284.204 168.93,283.537 167.5,282.5 Z"/></g>
<g><path style="opacity:0.976" fill="#747474" d="M 175.5,285.5 C 177.898,285.259 179.898,285.926 181.5,287.5C 179.214,287.405 177.214,286.738 175.5,285.5 Z"/></g>
<g><path style="opacity:0.756" fill="#8d8d8d" d="M 199.5,291.5 C 213.167,292.833 226.833,292.833 240.5,291.5C 233.724,292.961 226.724,293.628 219.5,293.5C 212.602,293.654 205.936,292.987 199.5,291.5 Z"/></g>
<g><path style="opacity:0.98" fill="#7e7e7e" d="M 239.5,321.5 C 226.167,321.5 212.833,321.5 199.5,321.5C 212.628,319.218 225.961,319.218 239.5,321.5 Z"/></g>
<g><path style="opacity:1" fill="#060606" d="M 199.5,321.5 C 212.833,321.5 226.167,321.5 239.5,321.5C 240.167,321.5 240.833,321.5 241.5,321.5C 245.919,322.972 250.586,323.638 255.5,323.5C 283.996,327.996 310.33,337.996 334.5,353.5C 334.821,355.048 335.821,355.715 337.5,355.5C 338.035,357.446 339.368,358.446 341.5,358.5C 354.37,367.032 366.036,377.032 376.5,388.5C 377.08,390.749 378.413,392.415 380.5,393.5C 381.5,393.833 382.167,394.5 382.5,395.5C 383.08,397.749 384.413,399.415 386.5,400.5C 387.167,400.5 387.5,400.833 387.5,401.5C 387.427,403.027 388.094,404.027 389.5,404.5C 391.262,405.262 392.262,406.596 392.5,408.5C 392.738,410.404 393.738,411.738 395.5,412.5C 395.427,414.027 396.094,415.027 397.5,415.5C 397.427,417.027 398.094,418.027 399.5,418.5C 399.427,420.027 400.094,421.027 401.5,421.5C 403.588,423.336 404.921,425.669 405.5,428.5C 405.427,430.027 406.094,431.027 407.5,431.5C 415.066,444.308 420.732,457.975 424.5,472.5C 424.41,475.152 425.076,477.485 426.5,479.5C 428.752,485.187 430.086,491.187 430.5,497.5C 430.251,501.458 430.918,505.124 432.5,508.5C 433.792,517.79 434.292,527.123 434,536.5C 432.793,542.539 429.293,546.539 423.5,548.5C 286.812,548.827 150.145,548.493 13.5,547.5C 12.8333,547.5 12.5,547.167 12.5,546.5C 11.7377,544.738 10.4044,543.738 8.5,543.5C 7.05817,542.18 6.39151,540.514 6.5,538.5C 6.55328,528.488 6.88661,518.488 7.5,508.5C 7.62462,501.902 8.62462,495.569 10.5,489.5C 12.0395,487.162 12.7062,484.495 12.5,481.5C 13.9238,479.485 14.5905,477.152 14.5,474.5C 14.366,472.708 14.6993,471.042 15.5,469.5C 17.6545,467.383 18.6545,464.716 18.5,461.5C 21.4995,451.173 25.8328,441.506 31.5,432.5C 32.9063,432.027 33.573,431.027 33.5,429.5C 33.6596,427.847 34.3263,426.514 35.5,425.5C 36.9063,425.027 37.573,424.027 37.5,422.5C 38.9063,422.027 39.573,421.027 39.5,419.5C 40.9063,419.027 41.573,418.027 41.5,416.5C 41.427,414.973 42.0937,413.973 43.5,413.5C 44.9063,413.027 45.573,412.027 45.5,410.5C 45.7376,408.596 46.7376,407.262 48.5,406.5C 50.2624,405.738 51.2624,404.404 51.5,402.5C 53.5869,401.415 54.9202,399.749 55.5,397.5C 55.5,396.833 55.8333,396.5 56.5,396.5C 58.914,395.089 60.5806,393.089 61.5,390.5C 62.8333,388.5 64.5,386.833 66.5,385.5C 67.8333,384.833 68.8333,383.833 69.5,382.5C 71.4517,379.882 73.785,377.548 76.5,375.5C 78.7488,374.92 80.4154,373.587 81.5,371.5C 82.8908,369.11 84.8908,367.443 87.5,366.5C 89.7488,365.92 91.4154,364.587 92.5,362.5C 94.0269,362.573 95.0269,361.906 95.5,360.5C 97.4044,360.262 98.7377,359.262 99.5,357.5C 101.027,357.573 102.027,356.906 102.5,355.5C 104.027,355.573 105.027,354.906 105.5,353.5C 105.842,352.662 106.508,352.328 107.5,352.5C 109.027,352.573 110.027,351.906 110.5,350.5C 110.842,349.662 111.508,349.328 112.5,349.5C 114.027,349.573 115.027,348.906 115.5,347.5C 121.849,343.659 128.516,340.325 135.5,337.5C 137.698,337.88 139.365,337.213 140.5,335.5C 141.391,334.89 142.391,334.557 143.5,334.5C 146.716,334.655 149.383,333.655 151.5,331.5C 154.152,331.59 156.485,330.924 158.5,329.5C 161.228,329.829 163.562,329.163 165.5,327.5C 171.507,325.164 177.841,323.831 184.5,323.5C 189.731,323.556 194.731,322.889 199.5,321.5 Z M 204.5,350.5 C 221.937,349.955 239.27,350.955 256.5,353.5C 259.219,354.913 262.219,355.58 265.5,355.5C 267.214,356.738 269.214,357.405 271.5,357.5C 272.708,358.234 274.041,358.567 275.5,358.5C 277.214,359.738 279.214,360.405 281.5,360.5C 291.216,364.521 300.883,368.854 310.5,373.5C 310.973,374.906 311.973,375.573 313.5,375.5C 313.842,376.338 314.508,376.672 315.5,376.5C 315.973,377.906 316.973,378.573 318.5,378.5C 318.973,379.906 319.973,380.573 321.5,380.5C 321.842,381.338 322.508,381.672 323.5,381.5C 324.262,383.262 325.596,384.262 327.5,384.5C 327.973,385.906 328.973,386.573 330.5,386.5C 331.579,388.543 333.246,389.876 335.5,390.5C 336.911,392.914 338.911,394.581 341.5,395.5C 343.167,397.833 345.167,399.833 347.5,401.5C 348.167,402.833 349.167,403.833 350.5,404.5C 352.833,407.5 355.5,410.167 358.5,412.5C 358.427,414.027 359.094,415.027 360.5,415.5C 366.22,422.553 371.553,429.887 376.5,437.5C 377.026,439.23 378.026,440.564 379.5,441.5C 389.703,460.549 397.036,480.549 401.5,501.5C 401.532,506.391 402.199,511.057 403.5,515.5C 403.5,516.833 403.5,518.167 403.5,519.5C 281.167,519.5 158.833,519.5 36.5,519.5C 36.5,517.833 36.5,516.167 36.5,514.5C 36.5,513.5 36.5,512.5 36.5,511.5C 37.6874,508.054 38.3541,504.387 38.5,500.5C 46.5054,462.146 64.172,429.146 91.5,401.5C 92.8333,401.5 93.5,400.833 93.5,399.5C 101.887,392.444 110.554,385.777 119.5,379.5C 121.434,378.89 123.101,377.89 124.5,376.5C 128.993,374.421 133.326,372.088 137.5,369.5C 139.027,369.573 140.027,368.906 140.5,367.5C 156.307,360.798 172.64,355.798 189.5,352.5C 194.694,352.259 199.694,351.593 204.5,350.5 Z"/></g>
<g><path style="opacity:1" fill="#5a5a5a" d="M 199.5,321.5 C 194.731,322.889 189.731,323.556 184.5,323.5C 189.25,321.969 194.25,321.302 199.5,321.5 Z"/></g>
<g><path style="opacity:0.863" fill="#8a8a8a" d="M 241.5,321.5 C 246.414,321.362 251.081,322.028 255.5,323.5C 250.586,323.638 245.919,322.972 241.5,321.5 Z"/></g>
<g><path style="opacity:1" fill="#545454" d="M 165.5,327.5 C 163.562,329.163 161.228,329.829 158.5,329.5C 160.515,328.076 162.848,327.41 165.5,327.5 Z"/></g>
<g><path style="opacity:0.965" fill="#727272" d="M 158.5,329.5 C 156.485,330.924 154.152,331.59 151.5,331.5C 153.515,330.076 155.848,329.41 158.5,329.5 Z"/></g>
<g><path style="opacity:0.996" fill="#4d4d4d" d="M 151.5,331.5 C 149.383,333.655 146.716,334.655 143.5,334.5C 145.936,333.129 148.603,332.129 151.5,331.5 Z"/></g>
<g><path style="opacity:0.992" fill="#6d6d6d" d="M 140.5,335.5 C 139.365,337.213 137.698,337.88 135.5,337.5C 136.93,336.463 138.597,335.796 140.5,335.5 Z"/></g>
<g><path style="opacity:0.969" fill="#6d6d6d" d="M 115.5,347.5 C 115.027,348.906 114.027,349.573 112.5,349.5C 112.973,348.094 113.973,347.427 115.5,347.5 Z"/></g>
<g><path style="opacity:0.984" fill="#616161" d="M 110.5,350.5 C 110.027,351.906 109.027,352.573 107.5,352.5C 107.973,351.094 108.973,350.427 110.5,350.5 Z"/></g>
<g><path style="opacity:0.329" fill="#a0a0a0" d="M 204.5,350.5 C 199.694,351.593 194.694,352.259 189.5,352.5C 194.234,350.855 199.234,350.189 204.5,350.5 Z"/></g>
<g><path style="opacity:0.922" fill="#797979" d="M 256.5,353.5 C 259.781,353.42 262.781,354.087 265.5,355.5C 262.219,355.58 259.219,354.913 256.5,353.5 Z"/></g>
<g><path style="opacity:0.945" fill="#7a7a7a" d="M 105.5,353.5 C 105.027,354.906 104.027,355.573 102.5,355.5C 102.973,354.094 103.973,353.427 105.5,353.5 Z"/></g>
<g><path style="opacity:0.992" fill="#6c6c6c" d="M 334.5,353.5 C 335.71,353.932 336.71,354.599 337.5,355.5C 335.821,355.715 334.821,355.048 334.5,353.5 Z"/></g>
<g><path style="opacity:0.925" fill="#7b7b7b" d="M 265.5,355.5 C 267.898,355.259 269.898,355.926 271.5,357.5C 269.214,357.405 267.214,356.738 265.5,355.5 Z"/></g>
<g><path style="opacity:0.961" fill="#6f6f6f" d="M 102.5,355.5 C 102.027,356.906 101.027,357.573 99.5,357.5C 99.9731,356.094 100.973,355.427 102.5,355.5 Z"/></g>
<g><path style="opacity:0.996" fill="#666666" d="M 337.5,355.5 C 339.23,356.026 340.564,357.026 341.5,358.5C 339.368,358.446 338.035,357.446 337.5,355.5 Z"/></g>
<g><path style="opacity:0.945" fill="#6b6b6b" d="M 99.5,357.5 C 98.7377,359.262 97.4044,360.262 95.5,360.5C 96.2623,358.738 97.5956,357.738 99.5,357.5 Z"/></g>
<g><path style="opacity:0.945" fill="#737373" d="M 275.5,358.5 C 277.898,358.259 279.898,358.926 281.5,360.5C 279.214,360.405 277.214,359.738 275.5,358.5 Z"/></g>
<g><path style="opacity:0.98" fill="#616161" d="M 95.5,360.5 C 95.0269,361.906 94.0269,362.573 92.5,362.5C 92.9731,361.094 93.9731,360.427 95.5,360.5 Z"/></g>
<g><path style="opacity:0.992" fill="#595959" d="M 92.5,362.5 C 91.4154,364.587 89.7488,365.92 87.5,366.5C 88.5846,364.413 90.2512,363.08 92.5,362.5 Z"/></g>
<g><path style="opacity:0.031" fill="#aeaeae" d="M 140.5,367.5 C 140.027,368.906 139.027,369.573 137.5,369.5C 137.973,368.094 138.973,367.427 140.5,367.5 Z"/></g>
<g><path style="opacity:0.988" fill="#5c5c5c" d="M 81.5,371.5 C 80.4154,373.587 78.7488,374.92 76.5,375.5C 77.5846,373.413 79.2512,372.08 81.5,371.5 Z"/></g>
<g><path style="opacity:0.682" fill="#848484" d="M 310.5,373.5 C 312.027,373.427 313.027,374.094 313.5,375.5C 311.973,375.573 310.973,374.906 310.5,373.5 Z"/></g>
<g><path style="opacity:0.973" fill="#616161" d="M 124.5,376.5 C 123.101,377.89 121.434,378.89 119.5,379.5C 120.344,377.241 122.011,376.241 124.5,376.5 Z"/></g>
<g><path style="opacity:0.745" fill="#818181" d="M 315.5,376.5 C 317.027,376.427 318.027,377.094 318.5,378.5C 316.973,378.573 315.973,377.906 315.5,376.5 Z"/></g>
<g><path style="opacity:0.655" fill="#909090" d="M 318.5,378.5 C 320.027,378.427 321.027,379.094 321.5,380.5C 319.973,380.573 318.973,379.906 318.5,378.5 Z"/></g>
<g><path style="opacity:0.89" fill="#676767" d="M 323.5,381.5 C 325.404,381.738 326.738,382.738 327.5,384.5C 325.596,384.262 324.262,383.262 323.5,381.5 Z"/></g>
<g><path style="opacity:0.878" fill="#808080" d="M 69.5,382.5 C 68.8333,383.833 67.8333,384.833 66.5,385.5C 66.5,383.5 67.5,382.5 69.5,382.5 Z"/></g>
<g><path style="opacity:0.839" fill="#6d6d6d" d="M 327.5,384.5 C 329.027,384.427 330.027,385.094 330.5,386.5C 328.973,386.573 327.973,385.906 327.5,384.5 Z"/></g>
<g><path style="opacity:0.969" fill="#808080" d="M 376.5,388.5 C 378.587,389.585 379.92,391.251 380.5,393.5C 378.413,392.415 377.08,390.749 376.5,388.5 Z"/></g>
<g><path style="opacity:0.969" fill="#6b6b6b" d="M 335.5,390.5 C 338.089,391.419 340.089,393.086 341.5,395.5C 338.911,394.581 336.911,392.914 335.5,390.5 Z"/></g>
<g><path style="opacity:0.961" fill="#6b6b6b" d="M 61.5,390.5 C 60.5806,393.089 58.914,395.089 56.5,396.5C 57.4194,393.911 59.086,391.911 61.5,390.5 Z"/></g>
<g><path style="opacity:0.992" fill="#717171" d="M 382.5,395.5 C 384.587,396.585 385.92,398.251 386.5,400.5C 384.413,399.415 383.08,397.749 382.5,395.5 Z"/></g>
<g><path style="opacity:0.922" fill="#747474" d="M 55.5,397.5 C 54.9202,399.749 53.5869,401.415 51.5,402.5C 52.0798,400.251 53.4131,398.585 55.5,397.5 Z"/></g>
<g><path style="opacity:0.016" fill="#a5a5a5" d="M 93.5,399.5 C 93.5,400.833 92.8333,401.5 91.5,401.5C 91.8333,400.5 92.5,399.833 93.5,399.5 Z"/></g>
<g><path style="opacity:0.894" fill="#858585" d="M 347.5,401.5 C 349.5,401.5 350.5,402.5 350.5,404.5C 349.167,403.833 348.167,402.833 347.5,401.5 Z"/></g>
<g><path style="opacity:0.957" fill="#797979" d="M 387.5,401.5 C 388.906,401.973 389.573,402.973 389.5,404.5C 388.094,404.027 387.427,403.027 387.5,401.5 Z"/></g>
<g><path style="opacity:0.992" fill="#616161" d="M 51.5,402.5 C 51.2624,404.404 50.2624,405.738 48.5,406.5C 48.7376,404.596 49.7376,403.262 51.5,402.5 Z"/></g>
<g><path style="opacity:0.957" fill="#686868" d="M 392.5,408.5 C 394.262,409.262 395.262,410.596 395.5,412.5C 393.738,411.738 392.738,410.404 392.5,408.5 Z"/></g>
<g><path style="opacity:0.973" fill="#6b6b6b" d="M 45.5,410.5 C 45.573,412.027 44.9063,413.027 43.5,413.5C 43.427,411.973 44.0937,410.973 45.5,410.5 Z"/></g>
<g><path style="opacity:0.016" fill="#a8a8a8" d="M 358.5,412.5 C 359.906,412.973 360.573,413.973 360.5,415.5C 359.094,415.027 358.427,414.027 358.5,412.5 Z"/></g>
<g><path style="opacity:0.878" fill="#727272" d="M 395.5,412.5 C 396.906,412.973 397.573,413.973 397.5,415.5C 396.094,415.027 395.427,414.027 395.5,412.5 Z"/></g>
<g><path style="opacity:0.855" fill="#767676" d="M 397.5,415.5 C 398.906,415.973 399.573,416.973 399.5,418.5C 398.094,418.027 397.427,417.027 397.5,415.5 Z"/></g>
<g><path style="opacity:0.898" fill="#696969" d="M 41.5,416.5 C 41.573,418.027 40.9063,419.027 39.5,419.5C 39.427,417.973 40.0937,416.973 41.5,416.5 Z"/></g>
<g><path style="opacity:0.812" fill="#818181" d="M 399.5,418.5 C 400.906,418.973 401.573,419.973 401.5,421.5C 400.094,421.027 399.427,420.027 399.5,418.5 Z"/></g>
<g><path style="opacity:0.851" fill="#767676" d="M 39.5,419.5 C 39.573,421.027 38.9063,422.027 37.5,422.5C 37.427,420.973 38.0937,419.973 39.5,419.5 Z"/></g>
<g><path style="opacity:0.725" fill="#8a8a8a" d="M 37.5,422.5 C 37.573,424.027 36.9063,425.027 35.5,425.5C 35.427,423.973 36.0937,422.973 37.5,422.5 Z"/></g>
<g><path style="opacity:0.702" fill="#898989" d="M 405.5,428.5 C 406.906,428.973 407.573,429.973 407.5,431.5C 406.094,431.027 405.427,430.027 405.5,428.5 Z"/></g>
<g><path style="opacity:0.745" fill="#868686" d="M 33.5,429.5 C 33.573,431.027 32.9063,432.027 31.5,432.5C 31.427,430.973 32.0937,429.973 33.5,429.5 Z"/></g>
<g><path style="opacity:0.98" fill="#616161" d="M 376.5,437.5 C 378.446,438.035 379.446,439.368 379.5,441.5C 378.026,440.564 377.026,439.23 376.5,437.5 Z"/></g>
<g><path style="opacity:0.98" fill="#757575" d="M 18.5,461.5 C 18.6545,464.716 17.6545,467.383 15.5,469.5C 16.129,466.603 17.129,463.936 18.5,461.5 Z"/></g>
<g><path style="opacity:0.976" fill="#6b6b6b" d="M 424.5,472.5 C 425.924,474.515 426.59,476.848 426.5,479.5C 425.076,477.485 424.41,475.152 424.5,472.5 Z"/></g>
<g><path style="opacity:0.957" fill="#686868" d="M 14.5,474.5 C 14.5905,477.152 13.9238,479.485 12.5,481.5C 12.4095,478.848 13.0762,476.515 14.5,474.5 Z"/></g>
<g><path style="opacity:0.906" fill="#747474" d="M 12.5,481.5 C 12.7062,484.495 12.0395,487.162 10.5,489.5C 10.5651,486.572 11.2318,483.905 12.5,481.5 Z"/></g>
<g><path style="opacity:0.671" fill="#8e8e8e" d="M 38.5,500.5 C 38.3541,504.387 37.6874,508.054 36.5,511.5C 36.2511,507.542 36.9177,503.876 38.5,500.5 Z"/></g>
<g><path style="opacity:0.702" fill="#999999" d="M 430.5,497.5 C 431.687,500.946 432.354,504.613 432.5,508.5C 430.918,505.124 430.251,501.458 430.5,497.5 Z"/></g>
<g><path style="opacity:0.671" fill="#848484" d="M 401.5,501.5 C 402.972,505.919 403.638,510.586 403.5,515.5C 402.199,511.057 401.532,506.391 401.5,501.5 Z"/></g>
<g><path style="opacity:0.773" fill="#6f6f6f" d="M 36.5,514.5 C 36.5,516.167 36.5,517.833 36.5,519.5C 158.833,519.5 281.167,519.5 403.5,519.5C 403.5,518.167 403.5,516.833 403.5,515.5C 404.451,516.919 404.784,518.585 404.5,520.5C 281.5,520.5 158.5,520.5 35.5,520.5C 35.2053,518.265 35.5386,516.265 36.5,514.5 Z"/></g>
<g><path style="opacity:0.541" fill="#919191" d="M 7.5,508.5 C 6.88661,518.488 6.55328,528.488 6.5,538.5C 5.12093,528.457 5.45426,518.457 7.5,508.5 Z"/></g>
<g><path style="opacity:0.965" fill="#787878" d="M 8.5,543.5 C 10.4044,543.738 11.7377,544.738 12.5,546.5C 10.5956,546.262 9.26231,545.262 8.5,543.5 Z"/></g>
<g><path style="opacity:0.812" fill="#767676" d="M 13.5,547.5 C 150.145,548.493 286.812,548.827 423.5,548.5C 288.001,549.666 152.334,549.833 16.5,549C 15.2625,548.768 14.2625,548.268 13.5,547.5 Z"/></g>
</svg>
