<?xml version="1.0" encoding="UTF-8" standalone="no"?>
<!DOCTYPE svg PUBLIC "-//W3C//DTD SVG 1.1//EN" "http://www.w3.org/Graphics/SVG/1.1/DTD/svg11.dtd">
<svg xmlns="http://www.w3.org/2000/svg" version="1.1" viewBox="0.00 0.00 413.00 291.00">
<g stroke-width="2.00" fill="none" stroke-linecap="butt">
<path stroke="#94d8ef" vector-effect="non-scaling-stroke" d="
  M 81.95 79.36
  C 87.58 70.94 91.78 61.85 92.37 51.80
  A 0.20 0.20 0.0 0 0 92.04 51.64
  C 88.85 54.58 84.46 57.89 82.75 61.85
  C 80.63 66.77 80.87 73.91 81.05 79.10
  Q 81.10 80.62 81.95 79.36"
/>
<path stroke="#94d8ef" vector-effect="non-scaling-stroke" d="
  M 321.62 52.13
  C 322.44 62.34 326.59 71.11 332.17 79.55
  Q 332.92 80.69 332.98 79.32
  Q 333.21 73.62 332.62 67.16
  C 331.98 60.23 327.63 56.47 322.10 51.87
  Q 321.56 51.42 321.62 52.13"
/>
<path stroke="#94d8ef" vector-effect="non-scaling-stroke" d="
  M 73.10 85.31
  C 75.04 79.27 76.37 68.14 73.63 61.13
  A 0.84 0.84 0.0 0 0 72.18 60.93
  C 68.53 65.72 66.94 71.13 67.13 77.44
  Q 67.39 86.47 69.22 94.41
  Q 69.37 95.07 69.65 94.45
  Q 71.52 90.25 73.10 85.31"
/>
<path stroke="#94d8ef" vector-effect="non-scaling-stroke" d="
  M 341.77 60.88
  A 0.82 0.82 0.0 0 0 340.37 61.13
  Q 339.48 63.67 339.20 66.29
  Q 337.68 80.79 344.45 94.32
  Q 344.76 94.95 344.90 94.26
  Q 346.74 85.51 346.93 76.37
  C 347.04 71.16 345.12 64.89 341.77 60.88"
/>
<path stroke="#94d8ef" vector-effect="non-scaling-stroke" d="
  M 58.85 80.82
  C 56.17 90.32 54.26 100.58 60.44 109.26
  A 0.66 0.66 0.0 0 0 61.59 109.11
  Q 67.06 95.11 61.39 82.35
  C 61.15 81.79 60.52 81.05 60.14 80.56
  Q 59.24 79.44 58.85 80.82"
/>
<path stroke="#94d8ef" vector-effect="non-scaling-stroke" d="
  M 354.99 80.56
  A 0.58 0.58 0.0 0 0 354.02 80.36
  Q 353.56 80.84 353.23 81.45
  C 348.50 90.01 348.92 100.23 352.50 109.36
  A 0.51 0.51 0.0 0 0 353.39 109.47
  Q 357.63 103.64 357.64 96.32
  Q 357.65 88.00 354.99 80.56"
/>
<path stroke="#94d8ef" vector-effect="non-scaling-stroke" d="
  M 147.02 143.13
  L 154.97 140.91
  A 1.48 1.47 -9.2 0 0 156.04 139.43
  L 156.01 139.00
  Q 155.95 137.73 154.72 138.04
  L 134.72 143.12
  Q 134.03 143.30 134.03 144.00
  L 134.02 145.51
  Q 134.02 146.26 134.75 146.10
  C 136.79 145.63 141.07 145.55 141.09 148.50
  Q 141.19 160.94 141.17 173.63
  C 141.17 178.95 141.87 182.94 137.06 185.11
  C 131.51 187.61 126.01 184.32 126.01 178.05
  Q 125.99 136.71 126.03 91.44
  C 126.04 81.46 141.22 81.37 141.19 92.52
  Q 141.16 103.51 141.14 114.34
  A 0.68 0.67 -6.7 0 0 141.98 114.99
  L 150.67 112.80
  A 1.47 1.45 84.7 0 0 151.77 111.46
  Q 152.32 101.15 151.80 91.53
  A 1.58 1.57 17.5 0 0 151.20 90.38
  C 143.84 84.67 135.35 78.78 126.69 83.56
  Q 122.01 86.15 117.13 89.31
  Q 115.13 90.61 115.13 92.83
  Q 115.13 134.97 115.13 177.47
  Q 115.13 179.00 116.29 179.93
  Q 120.95 183.69 126.34 186.64
  Q 133.39 190.50 140.43 186.86
  Q 146.19 183.88 150.97 179.99
  A 2.53 2.49 -19.5 0 0 151.89 178.10
  Q 152.13 165.30 151.93 152.15
  Q 151.88 149.18 151.11 146.83
  A 1.03 1.01 -85.6 0 0 150.62 146.25
  L 146.90 144.29
  A 0.63 0.63 0.0 0 1 147.02 143.13"
/>
<path stroke="#94d8ef" vector-effect="non-scaling-stroke" d="
  M 72.55 102.23
  C 69.73 106.71 66.62 112.77 67.01 118.20
  Q 67.11 119.59 67.98 118.49
  C 76.27 107.96 85.64 97.03 88.90 84.01
  Q 89.04 83.44 88.76 82.97
  Q 88.67 82.81 88.59 82.65
  Q 88.13 81.73 87.46 82.51
  Q 78.02 93.56 72.55 102.23"
/>
<path stroke="#94d8ef" vector-effect="non-scaling-stroke" d="
  M 184.99 93.90
  A 2.21 1.79 40.9 0 1 185.05 94.18
  L 199.38 187.64
  A 0.28 0.28 0.0 0 0 199.73 187.87
  L 205.95 186.21
  A 2.50 2.49 87.0 0 0 207.77 184.18
  Q 215.14 135.90 221.07 93.23
  Q 221.19 92.33 221.87 91.50
  Q 222.06 91.27 222.32 91.15
  Q 223.17 90.80 223.17 91.72
  L 223.11 187.00
  A 0.71 0.71 0.0 0 0 223.99 187.70
  L 232.04 185.77
  A 2.90 2.89 83.3 0 0 234.26 182.95
  L 234.28 82.54
  Q 234.28 82.18 233.93 82.17
  Q 230.05 82.04 225.96 82.15
  C 220.08 82.31 218.80 87.80 218.12 92.43
  Q 213.32 125.00 208.24 158.85
  Q 208.00 160.50 207.36 162.44
  Q 206.84 164.03 206.45 162.40
  Q 205.49 158.33 204.76 153.45
  Q 200.21 122.74 195.46 92.31
  Q 194.97 89.22 193.78 86.27
  C 191.73 81.23 183.90 81.96 179.50 82.15
  Q 179.12 82.16 179.12 82.54
  L 179.15 186.96
  A 1.02 1.02 0.0 0 0 180.21 187.98
  L 182.06 187.92
  A 0.85 0.85 0.0 0 0 182.88 187.07
  L 182.90 92.46
  Q 182.90 91.51 183.70 92.03
  Q 184.66 92.66 184.99 93.90"
/>
<path stroke="#94d8ef" vector-effect="non-scaling-stroke" d="
  M 291.40 135.74
  C 294.42 134.94 297.84 133.24 297.90 129.61
  Q 298.17 114.50 297.93 100.59
  C 297.86 96.60 297.85 91.62 294.62 88.68
  C 285.15 80.04 273.02 82.39 261.42 82.06
  Q 261.14 82.06 261.14 82.34
  L 261.15 187.65
  A 0.25 0.24 88.9 0 0 261.40 187.90
  Q 268.24 187.76 276.57 187.95
  C 283.61 188.11 288.63 186.32 293.99 182.38
  Q 298.21 179.28 298.56 172.97
  Q 299.27 160.31 298.74 143.28
  C 298.66 140.65 296.88 138.89 294.26 138.46
  Q 292.62 138.20 291.23 137.51
  Q 288.95 136.39 291.40 135.74"
/>
<path stroke="#94d8ef" vector-effect="non-scaling-stroke" d="
  M 325.57 85.23
  C 326.70 90.42 329.35 95.55 332.31 99.96
  Q 338.94 109.87 346.49 118.96
  A 0.24 0.23 29.5 0 0 346.90 118.85
  C 347.83 113.06 343.79 105.75 340.68 101.06
  Q 335.10 92.64 327.92 84.08
  Q 324.39 79.87 325.57 85.23"
/>
<path stroke="#94d8ef" vector-effect="non-scaling-stroke" d="
  M 57.60 118.50
  C 55.27 121.71 53.68 126.60 53.26 130.21
  Q 52.03 140.77 57.03 150.21
  Q 57.38 150.86 57.52 150.13
  Q 58.80 143.82 60.20 137.17
  C 61.44 131.22 59.70 124.42 58.29 118.63
  Q 58.09 117.82 57.60 118.50"
/>
<path stroke="#94d8ef" vector-effect="non-scaling-stroke" d="
  M 357.15 149.97
  C 362.17 140.31 362.57 128.52 356.77 118.91
  Q 356.01 117.66 355.66 119.08
  Q 354.22 124.85 353.50 130.06
  C 353.11 132.85 353.48 135.91 354.13 138.65
  Q 355.47 144.33 356.31 149.83
  Q 356.52 151.18 357.15 149.97"
/>
<path stroke="#94d8ef" vector-effect="non-scaling-stroke" d="
  M 41.96 132.99
  A 0.68 0.68 0.0 0 0 42.06 133.34
  L 47.43 142.21
  A 0.68 0.68 0.0 0 0 48.69 141.80
  L 47.37 128.20
  A 0.68 0.68 0.0 0 0 47.24 127.86
  L 43.16 122.37
  A 0.68 0.68 0.0 0 0 41.93 122.77
  L 41.96 132.99"
/>
<path stroke="#94d8ef" vector-effect="non-scaling-stroke" d="
  M 366.86 127.57
  A 0.55 0.55 0.0 0 0 366.74 127.86
  L 365.36 142.01
  A 0.55 0.55 0.0 0 0 366.38 142.36
  L 371.89 133.68
  A 0.55 0.55 0.0 0 0 371.97 133.39
  L 372.12 122.56
  A 0.55 0.55 0.0 0 0 371.14 122.21
  L 366.86 127.57"
/>
<path stroke="#94d8ef" vector-effect="non-scaling-stroke" d="
  M 69.92 126.28
  Q 69.66 125.75 69.29 126.20
  Q 68.87 126.71 68.70 127.36
  C 65.52 139.72 62.25 151.77 61.29 164.40
  C 60.85 170.22 61.22 177.28 64.38 182.15
  Q 64.81 182.82 64.83 182.02
  Q 65.01 176.29 66.74 169.75
  Q 68.84 161.81 71.09 153.68
  C 73.51 144.89 73.97 134.79 69.92 126.28"
/>
<path stroke="#94d8ef" vector-effect="non-scaling-stroke" d="
  M 349.92 181.92
  Q 352.38 177.02 352.66 172.23
  Q 353.13 164.22 351.63 155.36
  Q 349.48 142.76 345.19 126.90
  Q 345.11 126.59 344.91 126.33
  Q 344.47 125.74 344.13 126.39
  C 335.07 144.03 348.28 163.73 349.25 181.78
  Q 349.32 183.11 349.92 181.92"
/>
<path stroke="#94d8ef" vector-effect="non-scaling-stroke" d="
  M 37.02 144.05
  Q 36.06 143.73 36.37 144.70
  Q 41.07 159.13 54.09 166.20
  A 0.53 0.52 -73.0 0 0 54.86 165.79
  Q 55.10 163.24 55.27 160.87
  C 55.62 156.00 50.68 150.99 46.88 148.63
  Q 42.35 145.83 37.02 144.05"
/>
<path stroke="#94d8ef" vector-effect="non-scaling-stroke" d="
  M 376.88 144.11
  Q 365.77 147.50 360.15 155.36
  C 358.05 158.30 358.76 162.58 359.20 166.01
  A 0.42 0.42 0.0 0 0 359.82 166.33
  Q 372.91 159.05 377.59 144.84
  Q 377.94 143.78 376.88 144.11"
/>
<path stroke="#94d8ef" vector-effect="non-scaling-stroke" d="
  M 79.69 184.32
  Q 76.88 178.56 72.96 174.35
  Q 72.37 173.72 72.11 174.54
  C 68.85 184.47 68.56 196.94 77.37 203.79
  Q 77.80 204.12 78.10 203.66
  Q 84.36 193.92 79.69 184.32"
/>
<path stroke="#94d8ef" vector-effect="non-scaling-stroke" d="
  M 334.27 184.47
  C 330.65 192.11 332.56 196.60 335.51 203.39
  A 0.79 0.79 0.0 0 0 336.71 203.70
  C 345.59 196.97 345.00 184.08 341.83 174.25
  A 0.26 0.26 0.0 0 0 341.40 174.14
  Q 337.25 178.15 334.27 184.47"
/>
<path stroke="#94d8ef" vector-effect="non-scaling-stroke" d="
  M 51.37 191.20
  C 56.03 194.54 61.07 196.91 66.11 199.69
  Q 67.02 200.19 66.58 199.25
  Q 64.68 195.20 63.68 190.79
  A 1.82 1.81 15.4 0 0 63.14 189.84
  Q 57.17 184.33 49.53 183.21
  Q 48.01 182.99 46.51 183.19
  A 0.63 0.63 0.0 0 0 46.02 184.06
  C 47.15 186.77 48.95 189.47 51.37 191.20"
/>
<path stroke="#94d8ef" vector-effect="non-scaling-stroke" d="
  M 350.16 191.33
  C 349.50 193.99 348.79 196.75 347.42 199.14
  Q 346.94 199.97 347.82 199.58
  Q 356.35 195.78 362.77 191.07
  C 365.11 189.35 366.94 186.77 367.98 184.07
  A 0.73 0.73 0.0 0 0 367.30 183.07
  Q 360.78 183.07 355.23 186.54
  C 353.37 187.71 350.70 189.14 350.16 191.33"
/>
<path stroke="#94d8ef" vector-effect="non-scaling-stroke" d="
  M 89.00 193.15
  C 85.56 197.36 83.95 202.29 83.83 207.87
  Q 83.82 208.62 84.25 209.24
  L 88.09 214.68
  A 0.31 0.31 0.0 0 0 88.64 214.59
  C 90.73 207.54 91.93 200.28 89.81 193.32
  A 0.47 0.47 0.0 0 0 89.00 193.15"
/>
<path stroke="#94d8ef" vector-effect="non-scaling-stroke" d="
  M 330.19 207.75
  C 329.95 202.46 328.48 197.40 325.14 193.24
  A 0.58 0.57 32.8 0 0 324.14 193.45
  C 322.27 200.67 323.45 207.04 325.22 214.24
  Q 325.50 215.36 326.15 214.40
  L 329.85 208.94
  Q 330.21 208.40 330.19 207.75"
/>
<path stroke="#94d8ef" vector-effect="non-scaling-stroke" d="
  M 82.77 216.01
  C 77.83 208.96 66.47 205.37 58.30 204.39
  Q 53.25 203.78 48.56 203.03
  Q 46.97 202.77 48.08 203.94
  C 57.31 213.69 68.48 219.44 82.07 217.61
  A 1.02 1.02 0.0 0 0 82.77 216.01"
/>
<path stroke="#94d8ef" vector-effect="non-scaling-stroke" d="
  M 365.51 203.02
  C 353.91 204.51 343.26 205.43 333.74 213.19
  Q 332.21 214.43 331.24 215.98
  A 1.08 1.08 0.0 0 0 332.02 217.63
  C 345.97 219.26 356.41 213.79 365.98 203.95
  Q 367.08 202.81 365.51 203.02"
/>
<path stroke="#94d8ef" vector-effect="non-scaling-stroke" d="
  M 149.51 220.13
  Q 150.26 220.91 150.06 221.98
  L 148.91 228.34
  Q 148.66 229.68 149.86 229.04
  L 155.64 225.94
  A 1.81 1.80 45.2 0 1 157.36 225.95
  L 163.33 229.16
  A 0.44 0.44 0.0 0 0 163.98 228.78
  Q 164.02 226.22 163.12 223.86
  Q 162.62 222.57 162.93 221.15
  Q 163.05 220.58 163.46 220.17
  L 167.99 215.70
  Q 168.37 215.33 167.98 214.98
  C 166.47 213.63 163.08 214.18 161.14 213.99
  Q 160.43 213.92 160.12 213.28
  L 156.75 206.19
  A 0.28 0.27 -46.1 0 0 156.25 206.20
  Q 155.00 209.06 153.66 211.62
  Q 152.23 214.36 149.16 214.12
  Q 146.67 213.92 144.42 215.11
  Q 143.98 215.34 144.31 215.72
  Q 146.23 217.94 148.37 219.23
  Q 149.00 219.61 149.51 220.13"
/>
<path stroke="#94d8ef" vector-effect="non-scaling-stroke" d="
  M 253.93 213.21
  Q 253.59 213.92 252.82 213.99
  Q 250.52 214.21 248.13 214.13
  C 247.27 214.10 246.82 214.53 246.12 214.87
  Q 245.49 215.17 245.98 215.66
  L 250.65 220.28
  Q 251.00 220.63 251.12 221.13
  Q 251.44 222.55 250.90 223.87
  Q 249.98 226.16 250.05 228.66
  A 0.49 0.49 0.0 0 0 250.78 229.08
  L 256.55 225.97
  Q 257.12 225.66 257.73 225.88
  Q 260.68 226.95 263.83 228.87
  Q 265.06 229.62 265.01 228.18
  Q 264.93 225.77 264.05 223.28
  C 263.61 222.01 263.78 220.50 264.97 219.69
  Q 267.45 218.01 269.73 215.70
  Q 270.19 215.23 269.58 214.98
  Q 267.07 213.91 264.42 214.12
  C 260.60 214.43 258.96 209.04 257.85 206.25
  A 0.32 0.32 0.0 0 0 257.27 206.23
  L 253.93 213.21"
/>
<path stroke="#94d8ef" vector-effect="non-scaling-stroke" d="
  M 200.48 221.44
  Q 200.22 225.68 199.15 228.98
  Q 198.74 230.23 199.81 229.47
  Q 202.74 227.41 206.05 226.04
  A 2.45 2.44 -45.2 0 1 207.87 226.03
  Q 211.31 227.42 214.21 229.47
  Q 215.37 230.29 214.88 228.95
  Q 213.57 225.40 213.59 221.21
  Q 213.59 220.70 213.96 220.34
  L 218.96 215.39
  A 0.36 0.36 0.0 0 0 218.80 214.79
  Q 216.01 214.04 213.05 214.06
  Q 211.02 214.07 210.18 212.35
  Q 208.85 209.64 207.55 206.73
  A 0.61 0.61 0.0 0 0 206.43 206.75
  C 205.47 209.09 204.01 214.07 200.97 214.07
  Q 197.99 214.06 195.38 214.74
  A 0.49 0.48 -30.1 0 0 195.16 215.55
  L 200.08 220.41
  Q 200.51 220.83 200.48 221.44"
/>
<path stroke="#94d8ef" vector-effect="non-scaling-stroke" d="
  M 82.16 222.35
  Q 82.03 222.38 82.12 222.47
  Q 86.84 227.08 91.69 233.18
  Q 94.57 236.81 99.54 239.40
  Q 101.54 240.44 103.00 238.71
  L 103.61 238.00
  Q 105.22 236.08 103.08 234.78
  C 99.80 232.78 96.50 230.82 94.62 227.28
  Q 92.69 223.66 89.07 221.04
  Q 88.98 220.97 88.86 220.99
  L 82.16 222.35"
/>
<path stroke="#94d8ef" vector-effect="non-scaling-stroke" d="
  M 318.93 228.01
  C 317.27 231.18 313.62 232.93 310.75 234.91
  Q 308.80 236.25 310.38 238.00
  L 311.11 238.81
  Q 312.49 240.34 314.34 239.42
  Q 318.91 237.16 321.03 234.61
  Q 327.06 227.32 331.83 222.49
  Q 332.00 222.31 331.76 222.26
  L 325.21 220.93
  A 0.35 0.33 29.9 0 0 324.96 220.99
  Q 321.16 223.76 318.93 228.01"
/>
<path stroke="#94d8ef" vector-effect="non-scaling-stroke" d="
  M 272.27 84.98
  L 272.27 136.46
  A 0.32 0.32 0.0 0 0 272.59 136.78
  L 277.61 136.78
  A 9.58 7.15 0.0 0 0 287.19 129.63
  L 287.19 91.81
  A 9.58 7.15 -0.0 0 0 277.61 84.66
  L 272.59 84.66
  A 0.32 0.32 0.0 0 0 272.27 84.98"
/>
<path stroke="#94d8ef" vector-effect="non-scaling-stroke" d="
  M 273.04 140.71
  Q 272.27 140.90 272.27 141.69
  L 272.27 184.47
  A 0.67 0.67 0.0 0 0 272.97 185.14
  Q 276.16 185.02 279.97 185.15
  C 284.75 185.31 287.86 182.07 287.90 177.47
  Q 288.03 159.02 287.96 141.18
  Q 287.94 137.02 283.90 138.02
  L 273.04 140.71"
/>
</g>
<path fill="#28b1de" d="
  M 0.00 0.00
  L 413.00 0.00
  L 413.00 291.00
  L 0.00 291.00
  L 0.00 0.00
  Z
  M 81.95 79.36
  C 87.58 70.94 91.78 61.85 92.37 51.80
  A 0.20 0.20 0.0 0 0 92.04 51.64
  C 88.85 54.58 84.46 57.89 82.75 61.85
  C 80.63 66.77 80.87 73.91 81.05 79.10
  Q 81.10 80.62 81.95 79.36
  Z
  M 321.62 52.13
  C 322.44 62.34 326.59 71.11 332.17 79.55
  Q 332.92 80.69 332.98 79.32
  Q 333.21 73.62 332.62 67.16
  C 331.98 60.23 327.63 56.47 322.10 51.87
  Q 321.56 51.42 321.62 52.13
  Z
  M 73.10 85.31
  C 75.04 79.27 76.37 68.14 73.63 61.13
  A 0.84 0.84 0.0 0 0 72.18 60.93
  C 68.53 65.72 66.94 71.13 67.13 77.44
  Q 67.39 86.47 69.22 94.41
  Q 69.37 95.07 69.65 94.45
  Q 71.52 90.25 73.10 85.31
  Z
  M 341.77 60.88
  A 0.82 0.82 0.0 0 0 340.37 61.13
  Q 339.48 63.67 339.20 66.29
  Q 337.68 80.79 344.45 94.32
  Q 344.76 94.95 344.90 94.26
  Q 346.74 85.51 346.93 76.37
  C 347.04 71.16 345.12 64.89 341.77 60.88
  Z
  M 58.85 80.82
  C 56.17 90.32 54.26 100.58 60.44 109.26
  A 0.66 0.66 0.0 0 0 61.59 109.11
  Q 67.06 95.11 61.39 82.35
  C 61.15 81.79 60.52 81.05 60.14 80.56
  Q 59.24 79.44 58.85 80.82
  Z
  M 354.99 80.56
  A 0.58 0.58 0.0 0 0 354.02 80.36
  Q 353.56 80.84 353.23 81.45
  C 348.50 90.01 348.92 100.23 352.50 109.36
  A 0.51 0.51 0.0 0 0 353.39 109.47
  Q 357.63 103.64 357.64 96.32
  Q 357.65 88.00 354.99 80.56
  Z
  M 147.02 143.13
  L 154.97 140.91
  A 1.48 1.47 -9.2 0 0 156.04 139.43
  L 156.01 139.00
  Q 155.95 137.73 154.72 138.04
  L 134.72 143.12
  Q 134.03 143.30 134.03 144.00
  L 134.02 145.51
  Q 134.02 146.26 134.75 146.10
  C 136.79 145.63 141.07 145.55 141.09 148.50
  Q 141.19 160.94 141.17 173.63
  C 141.17 178.95 141.87 182.94 137.06 185.11
  C 131.51 187.61 126.01 184.32 126.01 178.05
  Q 125.99 136.71 126.03 91.44
  C 126.04 81.46 141.22 81.37 141.19 92.52
  Q 141.16 103.51 141.14 114.34
  A 0.68 0.67 -6.7 0 0 141.98 114.99
  L 150.67 112.80
  A 1.47 1.45 84.7 0 0 151.77 111.46
  Q 152.32 101.15 151.80 91.53
  A 1.58 1.57 17.5 0 0 151.20 90.38
  C 143.84 84.67 135.35 78.78 126.69 83.56
  Q 122.01 86.15 117.13 89.31
  Q 115.13 90.61 115.13 92.83
  Q 115.13 134.97 115.13 177.47
  Q 115.13 179.00 116.29 179.93
  Q 120.95 183.69 126.34 186.64
  Q 133.39 190.50 140.43 186.86
  Q 146.19 183.88 150.97 179.99
  A 2.53 2.49 -19.5 0 0 151.89 178.10
  Q 152.13 165.30 151.93 152.15
  Q 151.88 149.18 151.11 146.83
  A 1.03 1.01 -85.6 0 0 150.62 146.25
  L 146.90 144.29
  A 0.63 0.63 0.0 0 1 147.02 143.13
  Z
  M 72.55 102.23
  C 69.73 106.71 66.62 112.77 67.01 118.20
  Q 67.11 119.59 67.98 118.49
  C 76.27 107.96 85.64 97.03 88.90 84.01
  Q 89.04 83.44 88.76 82.97
  Q 88.67 82.81 88.59 82.65
  Q 88.13 81.73 87.46 82.51
  Q 78.02 93.56 72.55 102.23
  Z
  M 184.99 93.90
  A 2.21 1.79 40.9 0 1 185.05 94.18
  L 199.38 187.64
  A 0.28 0.28 0.0 0 0 199.73 187.87
  L 205.95 186.21
  A 2.50 2.49 87.0 0 0 207.77 184.18
  Q 215.14 135.90 221.07 93.23
  Q 221.19 92.33 221.87 91.50
  Q 222.06 91.27 222.32 91.15
  Q 223.17 90.80 223.17 91.72
  L 223.11 187.00
  A 0.71 0.71 0.0 0 0 223.99 187.70
  L 232.04 185.77
  A 2.90 2.89 83.3 0 0 234.26 182.95
  L 234.28 82.54
  Q 234.28 82.18 233.93 82.17
  Q 230.05 82.04 225.96 82.15
  C 220.08 82.31 218.80 87.80 218.12 92.43
  Q 213.32 125.00 208.24 158.85
  Q 208.00 160.50 207.36 162.44
  Q 206.84 164.03 206.45 162.40
  Q 205.49 158.33 204.76 153.45
  Q 200.21 122.74 195.46 92.31
  Q 194.97 89.22 193.78 86.27
  C 191.73 81.23 183.90 81.96 179.50 82.15
  Q 179.12 82.16 179.12 82.54
  L 179.15 186.96
  A 1.02 1.02 0.0 0 0 180.21 187.98
  L 182.06 187.92
  A 0.85 0.85 0.0 0 0 182.88 187.07
  L 182.90 92.46
  Q 182.90 91.51 183.70 92.03
  Q 184.66 92.66 184.99 93.90
  Z
  M 291.40 135.74
  C 294.42 134.94 297.84 133.24 297.90 129.61
  Q 298.17 114.50 297.93 100.59
  C 297.86 96.60 297.85 91.62 294.62 88.68
  C 285.15 80.04 273.02 82.39 261.42 82.06
  Q 261.14 82.06 261.14 82.34
  L 261.15 187.65
  A 0.25 0.24 88.9 0 0 261.40 187.90
  Q 268.24 187.76 276.57 187.95
  C 283.61 188.11 288.63 186.32 293.99 182.38
  Q 298.21 179.28 298.56 172.97
  Q 299.27 160.31 298.74 143.28
  C 298.66 140.65 296.88 138.89 294.26 138.46
  Q 292.62 138.20 291.23 137.51
  Q 288.95 136.39 291.40 135.74
  Z
  M 325.57 85.23
  C 326.70 90.42 329.35 95.55 332.31 99.96
  Q 338.94 109.87 346.49 118.96
  A 0.24 0.23 29.5 0 0 346.90 118.85
  C 347.83 113.06 343.79 105.75 340.68 101.06
  Q 335.10 92.64 327.92 84.08
  Q 324.39 79.87 325.57 85.23
  Z
  M 57.60 118.50
  C 55.27 121.71 53.68 126.60 53.26 130.21
  Q 52.03 140.77 57.03 150.21
  Q 57.38 150.86 57.52 150.13
  Q 58.80 143.82 60.20 137.17
  C 61.44 131.22 59.70 124.42 58.29 118.63
  Q 58.09 117.82 57.60 118.50
  Z
  M 357.15 149.97
  C 362.17 140.31 362.57 128.52 356.77 118.91
  Q 356.01 117.66 355.66 119.08
  Q 354.22 124.85 353.50 130.06
  C 353.11 132.85 353.48 135.91 354.13 138.65
  Q 355.47 144.33 356.31 149.83
  Q 356.52 151.18 357.15 149.97
  Z
  M 41.96 132.99
  A 0.68 0.68 0.0 0 0 42.06 133.34
  L 47.43 142.21
  A 0.68 0.68 0.0 0 0 48.69 141.80
  L 47.37 128.20
  A 0.68 0.68 0.0 0 0 47.24 127.86
  L 43.16 122.37
  A 0.68 0.68 0.0 0 0 41.93 122.77
  L 41.96 132.99
  Z
  M 366.86 127.57
  A 0.55 0.55 0.0 0 0 366.74 127.86
  L 365.36 142.01
  A 0.55 0.55 0.0 0 0 366.38 142.36
  L 371.89 133.68
  A 0.55 0.55 0.0 0 0 371.97 133.39
  L 372.12 122.56
  A 0.55 0.55 0.0 0 0 371.14 122.21
  L 366.86 127.57
  Z
  M 69.92 126.28
  Q 69.66 125.75 69.29 126.20
  Q 68.87 126.71 68.70 127.36
  C 65.52 139.72 62.25 151.77 61.29 164.40
  C 60.85 170.22 61.22 177.28 64.38 182.15
  Q 64.81 182.82 64.83 182.02
  Q 65.01 176.29 66.74 169.75
  Q 68.84 161.81 71.09 153.68
  C 73.51 144.89 73.97 134.79 69.92 126.28
  Z
  M 349.92 181.92
  Q 352.38 177.02 352.66 172.23
  Q 353.13 164.22 351.63 155.36
  Q 349.48 142.76 345.19 126.90
  Q 345.11 126.59 344.91 126.33
  Q 344.47 125.74 344.13 126.39
  C 335.07 144.03 348.28 163.73 349.25 181.78
  Q 349.32 183.11 349.92 181.92
  Z
  M 37.02 144.05
  Q 36.06 143.73 36.37 144.70
  Q 41.07 159.13 54.09 166.20
  A 0.53 0.52 -73.0 0 0 54.86 165.79
  Q 55.10 163.24 55.27 160.87
  C 55.62 156.00 50.68 150.99 46.88 148.63
  Q 42.35 145.83 37.02 144.05
  Z
  M 376.88 144.11
  Q 365.77 147.50 360.15 155.36
  C 358.05 158.30 358.76 162.58 359.20 166.01
  A 0.42 0.42 0.0 0 0 359.82 166.33
  Q 372.91 159.05 377.59 144.84
  Q 377.94 143.78 376.88 144.11
  Z
  M 79.69 184.32
  Q 76.88 178.56 72.96 174.35
  Q 72.37 173.72 72.11 174.54
  C 68.85 184.47 68.56 196.94 77.37 203.79
  Q 77.80 204.12 78.10 203.66
  Q 84.36 193.92 79.69 184.32
  Z
  M 334.27 184.47
  C 330.65 192.11 332.56 196.60 335.51 203.39
  A 0.79 0.79 0.0 0 0 336.71 203.70
  C 345.59 196.97 345.00 184.08 341.83 174.25
  A 0.26 0.26 0.0 0 0 341.40 174.14
  Q 337.25 178.15 334.27 184.47
  Z
  M 51.37 191.20
  C 56.03 194.54 61.07 196.91 66.11 199.69
  Q 67.02 200.19 66.58 199.25
  Q 64.68 195.20 63.68 190.79
  A 1.82 1.81 15.4 0 0 63.14 189.84
  Q 57.17 184.33 49.53 183.21
  Q 48.01 182.99 46.51 183.19
  A 0.63 0.63 0.0 0 0 46.02 184.06
  C 47.15 186.77 48.95 189.47 51.37 191.20
  Z
  M 350.16 191.33
  C 349.50 193.99 348.79 196.75 347.42 199.14
  Q 346.94 199.97 347.82 199.58
  Q 356.35 195.78 362.77 191.07
  C 365.11 189.35 366.94 186.77 367.98 184.07
  A 0.73 0.73 0.0 0 0 367.30 183.07
  Q 360.78 183.07 355.23 186.54
  C 353.37 187.71 350.70 189.14 350.16 191.33
  Z
  M 89.00 193.15
  C 85.56 197.36 83.95 202.29 83.83 207.87
  Q 83.82 208.62 84.25 209.24
  L 88.09 214.68
  A 0.31 0.31 0.0 0 0 88.64 214.59
  C 90.73 207.54 91.93 200.28 89.81 193.32
  A 0.47 0.47 0.0 0 0 89.00 193.15
  Z
  M 330.19 207.75
  C 329.95 202.46 328.48 197.40 325.14 193.24
  A 0.58 0.57 32.8 0 0 324.14 193.45
  C 322.27 200.67 323.45 207.04 325.22 214.24
  Q 325.50 215.36 326.15 214.40
  L 329.85 208.94
  Q 330.21 208.40 330.19 207.75
  Z
  M 82.77 216.01
  C 77.83 208.96 66.47 205.37 58.30 204.39
  Q 53.25 203.78 48.56 203.03
  Q 46.97 202.77 48.08 203.94
  C 57.31 213.69 68.48 219.44 82.07 217.61
  A 1.02 1.02 0.0 0 0 82.77 216.01
  Z
  M 365.51 203.02
  C 353.91 204.51 343.26 205.43 333.74 213.19
  Q 332.21 214.43 331.24 215.98
  A 1.08 1.08 0.0 0 0 332.02 217.63
  C 345.97 219.26 356.41 213.79 365.98 203.95
  Q 367.08 202.81 365.51 203.02
  Z
  M 149.51 220.13
  Q 150.26 220.91 150.06 221.98
  L 148.91 228.34
  Q 148.66 229.68 149.86 229.04
  L 155.64 225.94
  A 1.81 1.80 45.2 0 1 157.36 225.95
  L 163.33 229.16
  A 0.44 0.44 0.0 0 0 163.98 228.78
  Q 164.02 226.22 163.12 223.86
  Q 162.62 222.57 162.93 221.15
  Q 163.05 220.58 163.46 220.17
  L 167.99 215.70
  Q 168.37 215.33 167.98 214.98
  C 166.47 213.63 163.08 214.18 161.14 213.99
  Q 160.43 213.92 160.12 213.28
  L 156.75 206.19
  A 0.28 0.27 -46.1 0 0 156.25 206.20
  Q 155.00 209.06 153.66 211.62
  Q 152.23 214.36 149.16 214.12
  Q 146.67 213.92 144.42 215.11
  Q 143.98 215.34 144.31 215.72
  Q 146.23 217.94 148.37 219.23
  Q 149.00 219.61 149.51 220.13
  Z
  M 253.93 213.21
  Q 253.59 213.92 252.82 213.99
  Q 250.52 214.21 248.13 214.13
  C 247.27 214.10 246.82 214.53 246.12 214.87
  Q 245.49 215.17 245.98 215.66
  L 250.65 220.28
  Q 251.00 220.63 251.12 221.13
  Q 251.44 222.55 250.90 223.87
  Q 249.98 226.16 250.05 228.66
  A 0.49 0.49 0.0 0 0 250.78 229.08
  L 256.55 225.97
  Q 257.12 225.66 257.73 225.88
  Q 260.68 226.95 263.83 228.87
  Q 265.06 229.62 265.01 228.18
  Q 264.93 225.77 264.05 223.28
  C 263.61 222.01 263.78 220.50 264.97 219.69
  Q 267.45 218.01 269.73 215.70
  Q 270.19 215.23 269.58 214.98
  Q 267.07 213.91 264.42 214.12
  C 260.60 214.43 258.96 209.04 257.85 206.25
  A 0.32 0.32 0.0 0 0 257.27 206.23
  L 253.93 213.21
  Z
  M 200.48 221.44
  Q 200.22 225.68 199.15 228.98
  Q 198.74 230.23 199.81 229.47
  Q 202.74 227.41 206.05 226.04
  A 2.45 2.44 -45.2 0 1 207.87 226.03
  Q 211.31 227.42 214.21 229.47
  Q 215.37 230.29 214.88 228.95
  Q 213.57 225.40 213.59 221.21
  Q 213.59 220.70 213.96 220.34
  L 218.96 215.39
  A 0.36 0.36 0.0 0 0 218.80 214.79
  Q 216.01 214.04 213.05 214.06
  Q 211.02 214.07 210.18 212.35
  Q 208.85 209.64 207.55 206.73
  A 0.61 0.61 0.0 0 0 206.43 206.75
  C 205.47 209.09 204.01 214.07 200.97 214.07
  Q 197.99 214.06 195.38 214.74
  A 0.49 0.48 -30.1 0 0 195.16 215.55
  L 200.08 220.41
  Q 200.51 220.83 200.48 221.44
  Z
  M 82.16 222.35
  Q 82.03 222.38 82.12 222.47
  Q 86.84 227.08 91.69 233.18
  Q 94.57 236.81 99.54 239.40
  Q 101.54 240.44 103.00 238.71
  L 103.61 238.00
  Q 105.22 236.08 103.08 234.78
  C 99.80 232.78 96.50 230.82 94.62 227.28
  Q 92.69 223.66 89.07 221.04
  Q 88.98 220.97 88.86 220.99
  L 82.16 222.35
  Z
  M 318.93 228.01
  C 317.27 231.18 313.62 232.93 310.75 234.91
  Q 308.80 236.25 310.38 238.00
  L 311.11 238.81
  Q 312.49 240.34 314.34 239.42
  Q 318.91 237.16 321.03 234.61
  Q 327.06 227.32 331.83 222.49
  Q 332.00 222.31 331.76 222.26
  L 325.21 220.93
  A 0.35 0.33 29.9 0 0 324.96 220.99
  Q 321.16 223.76 318.93 228.01
  Z"
/>
<path fill="#ffffff" d="
  M 92.37 51.80
  C 91.78 61.85 87.58 70.94 81.95 79.36
  Q 81.10 80.62 81.05 79.10
  C 80.87 73.91 80.63 66.77 82.75 61.85
  C 84.46 57.89 88.85 54.58 92.04 51.64
  A 0.20 0.20 0.0 0 1 92.37 51.80
  Z"
/>
<path fill="#ffffff" d="
  M 332.17 79.55
  C 326.59 71.11 322.44 62.34 321.62 52.13
  Q 321.56 51.42 322.10 51.87
  C 327.63 56.47 331.98 60.23 332.62 67.16
  Q 333.21 73.62 332.98 79.32
  Q 332.92 80.69 332.17 79.55
  Z"
/>
<path fill="#ffffff" d="
  M 73.63 61.13
  C 76.37 68.14 75.04 79.27 73.10 85.31
  Q 71.52 90.25 69.65 94.45
  Q 69.37 95.07 69.22 94.41
  Q 67.39 86.47 67.13 77.44
  C 66.94 71.13 68.53 65.72 72.18 60.93
  A 0.84 0.84 0.0 0 1 73.63 61.13
  Z"
/>
<path fill="#ffffff" d="
  M 341.77 60.88
  C 345.12 64.89 347.04 71.16 346.93 76.37
  Q 346.74 85.51 344.90 94.26
  Q 344.76 94.95 344.45 94.32
  Q 337.68 80.79 339.20 66.29
  Q 339.48 63.67 340.37 61.13
  A 0.82 0.82 0.0 0 1 341.77 60.88
  Z"
/>
<path fill="#ffffff" d="
  M 58.85 80.82
  Q 59.24 79.44 60.14 80.56
  C 60.52 81.05 61.15 81.79 61.39 82.35
  Q 67.06 95.11 61.59 109.11
  A 0.66 0.66 0.0 0 1 60.44 109.26
  C 54.26 100.58 56.17 90.32 58.85 80.82
  Z"
/>
<path fill="#ffffff" d="
  M 354.99 80.56
  Q 357.65 88.00 357.64 96.32
  Q 357.63 103.64 353.39 109.47
  A 0.51 0.51 0.0 0 1 352.50 109.36
  C 348.92 100.23 348.50 90.01 353.23 81.45
  Q 353.56 80.84 354.02 80.36
  A 0.58 0.58 0.0 0 1 354.99 80.56
  Z"
/>
<path fill="#ffffff" d="
  M 147.02 143.13
  A 0.63 0.63 0.0 0 0 146.90 144.29
  L 150.62 146.25
  A 1.03 1.01 -85.6 0 1 151.11 146.83
  Q 151.88 149.18 151.93 152.15
  Q 152.13 165.30 151.89 178.10
  A 2.53 2.49 -19.5 0 1 150.97 179.99
  Q 146.19 183.88 140.43 186.86
  Q 133.39 190.50 126.34 186.64
  Q 120.95 183.69 116.29 179.93
  Q 115.13 179.00 115.13 177.47
  Q 115.13 134.97 115.13 92.83
  Q 115.13 90.61 117.13 89.31
  Q 122.01 86.15 126.69 83.56
  C 135.35 78.78 143.84 84.67 151.20 90.38
  A 1.58 1.57 17.5 0 1 151.80 91.53
  Q 152.32 101.15 151.77 111.46
  A 1.47 1.45 84.7 0 1 150.67 112.80
  L 141.98 114.99
  A 0.68 0.67 -6.7 0 1 141.14 114.34
  Q 141.16 103.51 141.19 92.52
  C 141.22 81.37 126.04 81.46 126.03 91.44
  Q 125.99 136.71 126.01 178.05
  C 126.01 184.32 131.51 187.61 137.06 185.11
  C 141.87 182.94 141.17 178.95 141.17 173.63
  Q 141.19 160.94 141.09 148.50
  C 141.07 145.55 136.79 145.63 134.75 146.10
  Q 134.02 146.26 134.02 145.51
  L 134.03 144.00
  Q 134.03 143.30 134.72 143.12
  L 154.72 138.04
  Q 155.95 137.73 156.01 139.00
  L 156.04 139.43
  A 1.48 1.47 -9.2 0 1 154.97 140.91
  L 147.02 143.13
  Z"
/>
<path fill="#ffffff" d="
  M 67.01 118.20
  C 66.62 112.77 69.73 106.71 72.55 102.23
  Q 78.02 93.56 87.46 82.51
  Q 88.13 81.73 88.59 82.65
  Q 88.67 82.81 88.76 82.97
  Q 89.04 83.44 88.90 84.01
  C 85.64 97.03 76.27 107.96 67.98 118.49
  Q 67.11 119.59 67.01 118.20
  Z"
/>
<path fill="#ffffff" d="
  M 184.99 93.90
  Q 184.66 92.66 183.70 92.03
  Q 182.90 91.51 182.90 92.46
  L 182.88 187.07
  A 0.85 0.85 0.0 0 1 182.06 187.92
  L 180.21 187.98
  A 1.02 1.02 0.0 0 1 179.15 186.96
  L 179.12 82.54
  Q 179.12 82.16 179.50 82.15
  C 183.90 81.96 191.73 81.23 193.78 86.27
  Q 194.97 89.22 195.46 92.31
  Q 200.21 122.74 204.76 153.45
  Q 205.49 158.33 206.45 162.40
  Q 206.84 164.03 207.36 162.44
  Q 208.00 160.50 208.24 158.85
  Q 213.32 125.00 218.12 92.43
  C 218.80 87.80 220.08 82.31 225.96 82.15
  Q 230.05 82.04 233.93 82.17
  Q 234.28 82.18 234.28 82.54
  L 234.26 182.95
  A 2.90 2.89 83.3 0 1 232.04 185.77
  L 223.99 187.70
  A 0.71 0.71 0.0 0 1 223.11 187.00
  L 223.17 91.72
  Q 223.17 90.80 222.32 91.15
  Q 222.06 91.27 221.87 91.50
  Q 221.19 92.33 221.07 93.23
  Q 215.14 135.90 207.77 184.18
  A 2.50 2.49 87.0 0 1 205.95 186.21
  L 199.73 187.87
  A 0.28 0.28 0.0 0 1 199.38 187.64
  L 185.05 94.18
  A 2.21 1.79 40.9 0 0 184.99 93.90
  Z"
/>
<path fill="#ffffff" d="
  M 291.40 135.74
  Q 288.95 136.39 291.23 137.51
  Q 292.62 138.20 294.26 138.46
  C 296.88 138.89 298.66 140.65 298.74 143.28
  Q 299.27 160.31 298.56 172.97
  Q 298.21 179.28 293.99 182.38
  C 288.63 186.32 283.61 188.11 276.57 187.95
  Q 268.24 187.76 261.40 187.90
  A 0.25 0.24 88.9 0 1 261.15 187.65
  L 261.14 82.34
  Q 261.14 82.06 261.42 82.06
  C 273.02 82.39 285.15 80.04 294.62 88.68
  C 297.85 91.62 297.86 96.60 297.93 100.59
  Q 298.17 114.50 297.90 129.61
  C 297.84 133.24 294.42 134.94 291.40 135.74
  Z
  M 272.27 84.98
  L 272.27 136.46
  A 0.32 0.32 0.0 0 0 272.59 136.78
  L 277.61 136.78
  A 9.58 7.15 0.0 0 0 287.19 129.63
  L 287.19 91.81
  A 9.58 7.15 -0.0 0 0 277.61 84.66
  L 272.59 84.66
  A 0.32 0.32 0.0 0 0 272.27 84.98
  Z
  M 273.04 140.71
  Q 272.27 140.90 272.27 141.69
  L 272.27 184.47
  A 0.67 0.67 0.0 0 0 272.97 185.14
  Q 276.16 185.02 279.97 185.15
  C 284.75 185.31 287.86 182.07 287.90 177.47
  Q 288.03 159.02 287.96 141.18
  Q 287.94 137.02 283.90 138.02
  L 273.04 140.71
  Z"
/>
<path fill="#ffffff" d="
  M 332.31 99.96
  C 329.35 95.55 326.70 90.42 325.57 85.23
  Q 324.39 79.87 327.92 84.08
  Q 335.10 92.64 340.68 101.06
  C 343.79 105.75 347.83 113.06 346.90 118.85
  A 0.24 0.23 29.5 0 1 346.49 118.96
  Q 338.94 109.87 332.31 99.96
  Z"
/>
<path fill="#28b1de" d="
  M 272.27 84.98
  A 0.32 0.32 0.0 0 1 272.59 84.66
  L 277.61 84.66
  A 9.58 7.15 0.0 0 1 287.19 91.81
  L 287.19 129.63
  A 9.58 7.15 0.0 0 1 277.61 136.78
  L 272.59 136.78
  A 0.32 0.32 0.0 0 1 272.27 136.46
  L 272.27 84.98
  Z"
/>
<path fill="#ffffff" d="
  M 53.26 130.21
  C 53.68 126.60 55.27 121.71 57.60 118.50
  Q 58.09 117.82 58.29 118.63
  C 59.70 124.42 61.44 131.22 60.20 137.17
  Q 58.80 143.82 57.52 150.13
  Q 57.38 150.86 57.03 150.21
  Q 52.03 140.77 53.26 130.21
  Z"
/>
<path fill="#ffffff" d="
  M 357.15 149.97
  Q 356.52 151.18 356.31 149.83
  Q 355.47 144.33 354.13 138.65
  C 353.48 135.91 353.11 132.85 353.50 130.06
  Q 354.22 124.85 355.66 119.08
  Q 356.01 117.66 356.77 118.91
  C 362.57 128.52 362.17 140.31 357.15 149.97
  Z"
/>
<path fill="#ffffff" d="
  M 41.96 132.99
  L 41.93 122.77
  A 0.68 0.68 0.0 0 1 43.16 122.37
  L 47.24 127.86
  A 0.68 0.68 0.0 0 1 47.37 128.20
  L 48.69 141.80
  A 0.68 0.68 0.0 0 1 47.43 142.21
  L 42.06 133.34
  A 0.68 0.68 0.0 0 1 41.96 132.99
  Z"
/>
<path fill="#ffffff" d="
  M 366.86 127.57
  L 371.14 122.21
  A 0.55 0.55 0.0 0 1 372.12 122.56
  L 371.97 133.39
  A 0.55 0.55 0.0 0 1 371.89 133.68
  L 366.38 142.36
  A 0.55 0.55 0.0 0 1 365.36 142.01
  L 366.74 127.86
  A 0.55 0.55 0.0 0 1 366.86 127.57
  Z"
/>
<path fill="#ffffff" d="
  M 69.92 126.28
  C 73.97 134.79 73.51 144.89 71.09 153.68
  Q 68.84 161.81 66.74 169.75
  Q 65.01 176.29 64.83 182.02
  Q 64.81 182.82 64.38 182.15
  C 61.22 177.28 60.85 170.22 61.29 164.40
  C 62.25 151.77 65.52 139.72 68.70 127.36
  Q 68.87 126.71 69.29 126.20
  Q 69.66 125.75 69.92 126.28
  Z"
/>
<path fill="#ffffff" d="
  M 349.92 181.92
  Q 349.32 183.11 349.25 181.78
  C 348.28 163.73 335.07 144.03 344.13 126.39
  Q 344.47 125.74 344.91 126.33
  Q 345.11 126.59 345.19 126.90
  Q 349.48 142.76 351.63 155.36
  Q 353.13 164.22 352.66 172.23
  Q 352.38 177.02 349.92 181.92
  Z"
/>
<path fill="#28b1de" d="
  M 273.04 140.71
  L 283.90 138.02
  Q 287.94 137.02 287.96 141.18
  Q 288.03 159.02 287.90 177.47
  C 287.86 182.07 284.75 185.31 279.97 185.15
  Q 276.16 185.02 272.97 185.14
  A 0.67 0.67 0.0 0 1 272.27 184.47
  L 272.27 141.69
  Q 272.27 140.90 273.04 140.71
  Z"
/>
<path fill="#ffffff" d="
  M 37.02 144.05
  Q 42.35 145.83 46.88 148.63
  C 50.68 150.99 55.62 156.00 55.27 160.87
  Q 55.10 163.24 54.86 165.79
  A 0.53 0.52 -73.0 0 1 54.09 166.20
  Q 41.07 159.13 36.37 144.70
  Q 36.06 143.73 37.02 144.05
  Z"
/>
<path fill="#ffffff" d="
  M 376.88 144.11
  Q 377.94 143.78 377.59 144.84
  Q 372.91 159.05 359.82 166.33
  A 0.42 0.42 0.0 0 1 359.20 166.01
  C 358.76 162.58 358.05 158.30 360.15 155.36
  Q 365.77 147.50 376.88 144.11
  Z"
/>
<path fill="#ffffff" d="
  M 79.69 184.32
  Q 84.36 193.92 78.10 203.66
  Q 77.80 204.12 77.37 203.79
  C 68.56 196.94 68.85 184.47 72.11 174.54
  Q 72.37 173.72 72.96 174.35
  Q 76.88 178.56 79.69 184.32
  Z"
/>
<path fill="#ffffff" d="
  M 334.27 184.47
  Q 337.25 178.15 341.40 174.14
  A 0.26 0.26 0.0 0 1 341.83 174.25
  C 345.00 184.08 345.59 196.97 336.71 203.70
  A 0.79 0.79 0.0 0 1 335.51 203.39
  C 332.56 196.60 330.65 192.11 334.27 184.47
  Z"
/>
<path fill="#ffffff" d="
  M 66.11 199.69
  C 61.07 196.91 56.03 194.54 51.37 191.20
  C 48.95 189.47 47.15 186.77 46.02 184.06
  A 0.63 0.63 0.0 0 1 46.51 183.19
  Q 48.01 182.99 49.53 183.21
  Q 57.17 184.33 63.14 189.84
  A 1.82 1.81 15.4 0 1 63.68 190.79
  Q 64.68 195.20 66.58 199.25
  Q 67.02 200.19 66.11 199.69
  Z"
/>
<path fill="#ffffff" d="
  M 347.42 199.14
  C 348.79 196.75 349.50 193.99 350.16 191.33
  C 350.70 189.14 353.37 187.71 355.23 186.54
  Q 360.78 183.07 367.30 183.07
  A 0.73 0.73 0.0 0 1 367.98 184.07
  C 366.94 186.77 365.11 189.35 362.77 191.07
  Q 356.35 195.78 347.82 199.58
  Q 346.94 199.97 347.42 199.14
  Z"
/>
<path fill="#ffffff" d="
  M 83.83 207.87
  C 83.95 202.29 85.56 197.36 89.00 193.15
  A 0.47 0.47 0.0 0 1 89.81 193.32
  C 91.93 200.28 90.73 207.54 88.64 214.59
  A 0.31 0.31 0.0 0 1 88.09 214.68
  L 84.25 209.24
  Q 83.82 208.62 83.83 207.87
  Z"
/>
<path fill="#ffffff" d="
  M 325.14 193.24
  C 328.48 197.40 329.95 202.46 330.19 207.75
  Q 330.21 208.40 329.85 208.94
  L 326.15 214.40
  Q 325.50 215.36 325.22 214.24
  C 323.45 207.04 322.27 200.67 324.14 193.45
  A 0.58 0.57 32.8 0 1 325.14 193.24
  Z"
/>
<path fill="#ffffff" d="
  M 58.30 204.39
  C 66.47 205.37 77.83 208.96 82.77 216.01
  A 1.02 1.02 0.0 0 1 82.07 217.61
  C 68.48 219.44 57.31 213.69 48.08 203.94
  Q 46.97 202.77 48.56 203.03
  Q 53.25 203.78 58.30 204.39
  Z"
/>
<path fill="#ffffff" d="
  M 333.74 213.19
  C 343.26 205.43 353.91 204.51 365.51 203.02
  Q 367.08 202.81 365.98 203.95
  C 356.41 213.79 345.97 219.26 332.02 217.63
  A 1.08 1.08 0.0 0 1 331.24 215.98
  Q 332.21 214.43 333.74 213.19
  Z"
/>
<path fill="#ffffff" d="
  M 149.51 220.13
  Q 149.00 219.61 148.37 219.23
  Q 146.23 217.94 144.31 215.72
  Q 143.98 215.34 144.42 215.11
  Q 146.67 213.92 149.16 214.12
  Q 152.23 214.36 153.66 211.62
  Q 155.00 209.06 156.25 206.20
  A 0.28 0.27 -46.1 0 1 156.75 206.19
  L 160.12 213.28
  Q 160.43 213.92 161.14 213.99
  C 163.08 214.18 166.47 213.63 167.98 214.98
  Q 168.37 215.33 167.99 215.70
  L 163.46 220.17
  Q 163.05 220.58 162.93 221.15
  Q 162.62 222.57 163.12 223.86
  Q 164.02 226.22 163.98 228.78
  A 0.44 0.44 0.0 0 1 163.33 229.16
  L 157.36 225.95
  A 1.81 1.80 45.2 0 0 155.64 225.94
  L 149.86 229.04
  Q 148.66 229.68 148.91 228.34
  L 150.06 221.98
  Q 150.26 220.91 149.51 220.13
  Z"
/>
<path fill="#ffffff" d="
  M 253.93 213.21
  L 257.27 206.23
  A 0.32 0.32 0.0 0 1 257.85 206.25
  C 258.96 209.04 260.60 214.43 264.42 214.12
  Q 267.07 213.91 269.58 214.98
  Q 270.19 215.23 269.73 215.70
  Q 267.45 218.01 264.97 219.69
  C 263.78 220.50 263.61 222.01 264.05 223.28
  Q 264.93 225.77 265.01 228.18
  Q 265.06 229.62 263.83 228.87
  Q 260.68 226.95 257.73 225.88
  Q 257.12 225.66 256.55 225.97
  L 250.78 229.08
  A 0.49 0.49 0.0 0 1 250.05 228.66
  Q 249.98 226.16 250.90 223.87
  Q 251.44 222.55 251.12 221.13
  Q 251.00 220.63 250.65 220.28
  L 245.98 215.66
  Q 245.49 215.17 246.12 214.87
  C 246.82 214.53 247.27 214.10 248.13 214.13
  Q 250.52 214.21 252.82 213.99
  Q 253.59 213.92 253.93 213.21
  Z"
/>
<path fill="#ffffff" d="
  M 200.08 220.41
  L 195.16 215.55
  A 0.49 0.48 -30.1 0 1 195.38 214.74
  Q 197.99 214.06 200.97 214.07
  C 204.01 214.07 205.47 209.09 206.43 206.75
  A 0.61 0.61 0.0 0 1 207.55 206.73
  Q 208.85 209.64 210.18 212.35
  Q 211.02 214.07 213.05 214.06
  Q 216.01 214.04 218.80 214.79
  A 0.36 0.36 0.0 0 1 218.96 215.39
  L 213.96 220.34
  Q 213.59 220.70 213.59 221.21
  Q 213.57 225.40 214.88 228.95
  Q 215.37 230.29 214.21 229.47
  Q 211.31 227.42 207.87 226.03
  A 2.45 2.44 -45.2 0 0 206.05 226.04
  Q 202.74 227.41 199.81 229.47
  Q 198.74 230.23 199.15 228.98
  Q 200.22 225.68 200.48 221.44
  Q 200.51 220.83 200.08 220.41
  Z"
/>
<path fill="#ffffff" d="
  M 82.16 222.35
  L 88.86 220.99
  Q 88.98 220.97 89.07 221.04
  Q 92.69 223.66 94.62 227.28
  C 96.50 230.82 99.80 232.78 103.08 234.78
  Q 105.22 236.08 103.61 238.00
  L 103.00 238.71
  Q 101.54 240.44 99.54 239.40
  Q 94.57 236.81 91.69 233.18
  Q 86.84 227.08 82.12 222.47
  Q 82.03 222.38 82.16 222.35
  Z"
/>
<path fill="#ffffff" d="
  M 318.93 228.01
  Q 321.16 223.76 324.96 220.99
  A 0.35 0.33 29.9 0 1 325.21 220.93
  L 331.76 222.26
  Q 332.00 222.31 331.83 222.49
  Q 327.06 227.32 321.03 234.61
  Q 318.91 237.16 314.34 239.42
  Q 312.49 240.34 311.11 238.81
  L 310.38 238.00
  Q 308.80 236.25 310.75 234.91
  C 313.62 232.93 317.27 231.18 318.93 228.01
  Z"
/>
</svg>
