<?xml version="1.0" encoding="UTF-8" standalone="no"?>
<!DOCTYPE svg PUBLIC "-//W3C//DTD SVG 1.1//EN" "http://www.w3.org/Graphics/SVG/1.1/DTD/svg11.dtd">
<svg xmlns="http://www.w3.org/2000/svg" version="1.1" viewBox="0.00 0.00 342.00 190.00">
<path fill="#ffffff" d="
  M 45.01 26.77
  Q 44.57 25.58 44.68 24.24
  Q 44.98 20.35 45.15 16.44
  C 45.22 14.87 45.93 13.96 46.07 12.58
  Q 46.14 11.76 46.47 11.01
  Q 47.38 8.93 48.56 7.54
  Q 51.42 4.18 56.38 0.54
  Q 56.87 0.18 56.73 0.78
  Q 56.23 2.84 56.06 4.98
  Q 55.90 7.04 55.34 9.01
  Q 52.26 19.79 45.57 29.00
  Q 44.92 29.89 45.02 28.79
  L 45.12 27.63
  Q 45.16 27.19 45.01 26.77
  Z"
/>
<path fill="#ffffff" d="
  M 297.08 26.36
  C 296.94 27.25 296.86 27.86 296.95 28.78
  Q 297.06 29.88 296.40 28.98
  Q 290.45 20.73 287.12 10.63
  Q 286.28 8.09 286.06 5.74
  Q 285.83 3.23 285.23 0.85
  Q 285.03 0.06 285.68 0.55
  Q 290.14 3.93 293.17 7.27
  Q 294.44 8.67 295.40 10.71
  Q 295.88 11.74 295.97 12.79
  Q 296.04 13.57 296.41 14.26
  C 297.30 15.90 296.82 19.07 297.10 21.06
  Q 297.49 23.75 297.08 26.36
  Z"
/>
<path fill="#ffffff" d="
  M 38.24 12.31
  Q 38.38 12.37 38.49 12.48
  Q 38.74 12.72 38.76 13.06
  Q 38.96 15.66 39.26 18.25
  Q 39.57 20.89 39.22 23.22
  Q 38.95 25.00 38.86 26.71
  Q 38.79 28.19 38.40 29.85
  Q 36.83 36.60 35.61 39.23
  Q 34.12 42.42 33.76 44.01
  Q 33.70 44.27 33.43 44.26
  Q 33.30 44.25 33.18 44.17
  Q 33.08 44.10 33.09 43.98
  C 33.34 41.89 32.20 40.28 32.07 38.15
  C 31.92 35.49 31.16 33.00 31.11 30.24
  Q 31.06 27.25 31.02 24.17
  C 30.95 19.12 33.06 13.77 36.05 9.78
  Q 36.71 8.91 37.41 9.73
  Q 38.07 10.48 37.84 11.51
  A 0.70 0.70 0.0 0 0 38.24 12.31
  Z"
/>
<path fill="#ffffff" d="
  M 304.13 11.82
  Q 303.91 10.77 304.42 9.99
  Q 305.22 8.75 306.08 9.94
  Q 308.46 13.24 309.95 17.57
  Q 310.99 20.60 310.93 23.50
  C 310.86 27.05 311.20 30.82 310.45 34.28
  Q 309.97 36.51 309.84 38.75
  C 309.75 40.44 308.80 41.72 308.86 43.42
  Q 308.91 45.05 308.25 43.56
  Q 305.58 37.51 303.91 31.17
  Q 303.34 29.00 303.17 27.10
  Q 302.99 25.00 302.72 22.89
  C 302.29 19.45 303.08 16.31 303.25 13.00
  Q 303.27 12.56 303.67 12.35
  L 303.94 12.21
  A 0.37 0.36 71.7 0 0 304.13 11.82
  Z"
/>
<path fill="#ffffff" d="
  M 25.84 57.31
  Q 25.85 57.98 25.55 58.51
  Q 25.15 59.21 24.64 58.59
  Q 22.99 56.61 22.09 54.37
  Q 19.47 47.88 20.27 41.61
  Q 20.96 36.21 22.80 29.45
  Q 22.98 28.82 23.51 29.20
  Q 25.19 30.36 25.81 32.48
  C 26.24 33.96 27.21 35.15 27.59 36.75
  Q 29.59 45.14 27.29 53.04
  Q 26.98 54.09 26.85 55.15
  Q 26.79 55.55 26.62 55.92
  Q 26.50 56.17 26.28 56.36
  Q 25.84 56.73 25.84 57.31
  Z"
/>
<path fill="#ffffff" d="
  M 315.72 56.32
  Q 315.55 56.17 315.41 55.98
  Q 315.28 55.81 315.24 55.61
  Q 314.78 53.49 314.31 51.46
  Q 312.65 44.32 314.34 37.02
  Q 314.60 35.91 315.10 34.91
  Q 315.79 33.54 316.28 32.15
  Q 316.90 30.45 318.45 29.17
  A 0.46 0.46 0.0 0 1 319.19 29.40
  Q 321.10 36.19 321.77 42.04
  C 322.01 44.11 322.07 46.69 321.49 48.70
  Q 320.99 50.41 320.87 52.04
  Q 320.85 52.38 320.69 52.69
  C 319.59 54.81 318.99 56.75 317.34 58.63
  Q 316.90 59.13 316.52 58.59
  Q 316.13 58.02 316.15 57.31
  Q 316.17 56.72 315.72 56.32
  Z"
/>
<path fill="#ffffff" d="
  M 101.78 94.75
  Q 99.92 94.76 98.49 95.65
  A 0.19 0.18 -16.4 0 1 98.21 95.50
  L 98.06 92.55
  Q 98.05 92.35 98.23 92.27
  Q 100.09 91.42 102.02 91.19
  C 103.65 91.00 104.94 90.01 106.53 90.12
  Q 107.04 90.15 107.49 89.90
  C 109.03 89.04 110.52 89.43 111.89 88.72
  C 113.37 87.96 114.72 88.36 116.15 87.62
  C 117.31 87.01 118.30 87.34 119.40 86.87
  Q 120.17 86.54 120.20 87.38
  L 120.26 89.21
  Q 120.27 89.70 119.80 89.82
  L 112.17 91.87
  Q 111.66 92.00 111.48 92.50
  Q 111.30 93.02 111.45 93.57
  A 0.69 0.69 0.0 0 0 112.00 94.06
  C 114.21 94.37 116.12 96.25 115.89 98.60
  C 115.78 99.83 116.25 100.88 116.25 102.15
  Q 116.22 113.78 116.24 125.28
  C 116.24 126.10 115.82 127.00 115.93 127.70
  Q 116.03 128.34 115.51 128.74
  Q 108.74 133.88 103.56 136.37
  Q 99.86 138.15 96.64 137.72
  C 94.51 137.44 92.23 136.96 90.38 135.88
  Q 84.65 132.53 79.63 128.73
  Q 79.12 128.35 79.12 127.72
  L 79.12 40.27
  Q 79.12 39.77 79.53 39.47
  Q 83.93 36.19 89.61 32.97
  C 95.05 29.88 99.99 29.72 105.29 32.75
  Q 109.98 35.43 114.45 38.46
  A 4.13 4.13 0.0 0 1 116.25 41.87
  L 116.20 59.88
  A 2.08 2.07 -7.2 0 1 114.64 61.89
  L 106.36 64.03
  Q 105.08 64.35 105.09 63.04
  Q 105.19 50.99 105.08 40.66
  Q 105.06 38.60 103.90 36.62
  C 101.63 32.71 96.23 32.34 92.88 34.65
  Q 90.31 36.42 90.30 40.25
  Q 90.22 77.14 90.33 127.25
  Q 90.35 134.81 97.74 134.78
  Q 101.70 134.76 103.74 131.99
  Q 105.18 130.01 105.16 126.87
  Q 105.07 112.13 105.14 98.98
  C 105.15 97.11 103.93 94.75 101.78 94.75
  Z"
/>
<path fill="#ffffff" d="
  M 34.89 54.13
  C 35.22 53.61 35.20 52.94 35.57 52.38
  Q 42.56 41.58 51.56 31.23
  A 0.49 0.49 0.0 0 1 52.27 31.20
  Q 53.14 32.07 52.82 33.29
  Q 52.37 35.01 51.94 36.81
  Q 51.59 38.26 50.93 39.54
  C 50.32 40.72 50.15 41.90 49.47 43.06
  Q 41.90 55.93 31.81 67.67
  Q 30.69 68.98 30.72 67.25
  Q 30.85 60.38 34.89 54.13
  Z"
/>
<path fill="#ffffff" d="
  M 170.68 111.61
  A 0.05 0.05 0.0 0 0 170.72 111.68
  L 171.02 111.68
  Q 171.27 111.67 171.23 111.43
  Q 171.06 110.46 171.67 109.81
  Q 172.01 109.46 172.08 108.97
  L 174.65 91.08
  Q 174.71 90.68 174.95 90.35
  Q 175.18 90.04 175.14 89.65
  C 174.89 87.46 175.55 85.74 175.85 83.66
  Q 177.79 70.31 179.61 57.11
  Q 179.64 56.87 179.78 56.67
  Q 179.87 56.54 179.96 56.41
  Q 180.12 56.19 180.10 55.92
  C 179.93 52.77 181.01 50.20 181.20 47.12
  Q 181.30 45.50 181.73 43.97
  Q 182.09 42.71 182.12 41.45
  C 182.18 38.61 183.38 33.62 186.20 32.03
  C 189.15 30.37 194.53 31.19 197.90 31.13
  Q 198.50 31.12 198.50 31.72
  L 198.50 131.96
  A 2.84 2.83 82.8 0 1 196.38 134.71
  L 187.73 136.96
  A 0.49 0.49 0.0 0 1 187.12 136.49
  L 187.13 41.53
  Q 187.13 38.74 185.65 41.11
  C 184.58 42.83 185.00 44.75 184.57 46.64
  Q 183.93 49.41 183.88 52.11
  Q 183.84 53.74 183.31 55.35
  C 182.84 56.81 182.92 58.36 182.69 59.88
  Q 181.07 70.55 179.65 81.06
  Q 179.46 82.51 179.06 83.89
  C 178.64 85.31 179.09 86.74 178.62 88.14
  Q 177.87 90.38 177.89 92.65
  C 177.91 95.04 176.90 97.14 176.84 99.55
  Q 176.80 101.51 176.35 103.35
  Q 175.89 105.24 175.64 107.28
  Q 174.60 115.75 173.14 125.33
  Q 172.43 129.98 171.66 134.07
  Q 171.58 134.53 171.19 134.77
  Q 169.76 135.66 168.16 135.81
  C 166.70 135.96 165.46 136.53 164.08 136.97
  Q 163.36 137.20 163.25 136.45
  Q 157.17 96.15 151.03 57.22
  Q 149.82 49.54 148.99 42.97
  A 3.88 1.67 33.0 0 0 147.59 40.87
  Q 147.46 40.75 147.29 40.70
  Q 146.86 40.59 146.86 41.03
  L 146.88 136.73
  Q 146.88 137.03 146.59 136.96
  Q 145.26 136.65 143.41 136.93
  Q 143.12 136.97 143.12 136.68
  L 143.12 31.50
  Q 143.12 31.12 143.50 31.13
  L 152.43 31.15
  Q 152.94 31.15 153.35 31.44
  Q 154.21 32.05 155.23 32.43
  C 157.12 33.15 158.45 35.71 158.74 37.51
  Q 159.01 39.21 159.55 40.84
  Q 160.05 42.35 159.89 44.21
  Q 159.84 44.70 160.03 45.16
  Q 160.30 45.85 160.47 47.00
  Q 162.82 63.06 166.49 86.28
  Q 166.69 87.55 166.78 88.73
  Q 166.91 90.52 167.35 92.37
  Q 167.85 94.47 167.97 96.50
  C 168.10 98.58 169.04 100.38 168.90 102.51
  Q 168.83 103.64 169.22 104.87
  Q 169.86 106.85 169.86 108.92
  Q 169.86 109.47 170.31 109.80
  Q 171.19 110.47 170.68 111.61
  Z"
/>
<path fill="#ffffff" d="
  M 255.46 84.82
  Q 253.31 85.17 255.15 86.34
  Q 256.18 86.99 257.42 87.07
  Q 258.49 87.14 259.53 87.68
  Q 261.22 88.57 262.12 89.89
  Q 262.92 91.06 262.91 92.54
  Q 262.84 105.81 262.88 120.98
  C 262.89 122.85 262.11 124.17 261.90 125.90
  C 261.71 127.57 260.30 129.79 258.97 130.80
  Q 254.92 133.85 250.69 135.58
  Q 247.35 136.94 242.83 136.88
  Q 234.24 136.75 225.61 136.92
  Q 225.12 136.93 225.12 136.44
  L 225.12 31.54
  Q 225.12 31.10 225.56 31.10
  Q 234.15 31.15 241.97 31.11
  Q 243.87 31.10 245.84 31.44
  Q 247.86 31.79 249.68 32.38
  Q 252.92 33.43 255.76 35.30
  Q 259.16 37.54 260.47 39.95
  Q 262.04 42.83 262.14 46.62
  Q 262.51 61.51 262.01 77.49
  Q 261.98 78.52 261.95 79.53
  Q 261.91 80.59 261.19 81.45
  Q 258.82 84.25 255.46 84.82
  Z
  M 245.83 84.35
  C 249.07 83.70 251.14 80.90 251.13 77.62
  Q 251.12 57.74 251.12 39.25
  Q 251.12 38.76 250.83 38.37
  C 249.89 37.14 248.96 35.17 247.28 34.88
  C 245.82 34.62 244.31 33.84 242.98 33.83
  Q 240.00 33.81 236.99 33.78
  Q 236.50 33.78 236.50 34.27
  L 236.50 85.99
  A 0.58 0.57 -12.6 0 0 237.32 86.50
  Q 238.27 86.06 239.40 86.15
  Q 239.99 86.20 240.51 85.91
  Q 242.22 84.94 244.26 85.16
  Q 244.96 85.24 245.37 84.66
  Q 245.54 84.41 245.83 84.35
  Z
  M 244.19 88.09
  Q 240.49 88.87 236.94 89.92
  Q 236.50 90.05 236.50 90.51
  L 236.50 133.71
  Q 236.50 134.30 237.09 134.25
  Q 240.24 134.00 243.54 134.18
  Q 246.82 134.36 248.83 132.64
  Q 251.76 130.13 251.76 127.01
  Q 251.78 108.26 251.76 89.54
  A 2.67 2.67 0.0 0 0 248.88 86.89
  Q 247.77 86.97 246.54 87.42
  Q 245.42 87.83 244.19 88.09
  Z"
/>
<path fill="#ffffff" d="
  M 291.57 40.81
  Q 289.99 37.48 289.40 33.88
  Q 288.58 28.81 291.82 32.79
  Q 296.45 38.47 300.98 44.41
  Q 306.58 51.78 309.77 59.36
  Q 311.34 63.11 311.24 67.23
  Q 311.19 68.99 310.08 67.62
  C 304.93 61.28 299.81 54.89 295.42 47.82
  Q 293.18 44.21 291.57 40.81
  Z"
/>
<path fill="#ffffff" d="
  M 21.20 68.37
  Q 21.29 67.83 21.59 67.44
  Q 22.28 66.54 22.44 67.66
  Q 22.83 70.34 23.55 73.01
  Q 24.33 75.90 24.73 79.41
  Q 25.07 82.35 24.50 85.47
  Q 23.58 90.47 22.14 95.71
  Q 21.74 97.18 21.77 98.69
  Q 21.80 100.59 20.86 98.95
  Q 16.92 92.11 16.78 83.64
  Q 16.65 75.94 20.39 69.24
  Q 20.49 69.06 20.68 68.97
  Q 20.82 68.91 20.94 68.82
  Q 21.16 68.65 21.20 68.37
  Z"
/>
<path fill="#ffffff" d="
  M 320.59 67.83
  C 321.05 68.88 321.79 69.52 322.32 70.62
  Q 325.38 76.87 325.18 83.24
  Q 325.12 85.34 324.94 87.63
  C 324.69 90.93 322.85 96.95 320.69 99.45
  Q 320.10 100.14 320.12 99.23
  C 320.16 97.70 320.17 96.57 319.73 95.04
  Q 317.64 87.77 317.23 82.80
  Q 316.90 78.86 318.39 73.26
  Q 319.11 70.55 319.49 67.98
  Q 319.79 66.02 320.59 67.83
  Z"
/>
<path fill="#ffffff" d="
  M 6.85 83.74
  Q 5.50 80.43 5.52 78.68
  Q 5.56 75.10 6.17 70.99
  Q 6.24 70.53 6.57 70.85
  Q 9.25 73.50 10.87 76.34
  Q 11.98 78.31 11.94 80.22
  Q 11.88 82.49 11.84 84.71
  C 11.80 87.12 12.83 89.17 13.16 91.55
  Q 13.24 92.14 12.75 91.79
  Q 9.05 89.13 6.85 83.74
  Z"
/>
<path fill="#ffffff" d="
  M 328.69 91.79
  C 329.23 90.79 329.15 89.43 329.61 88.27
  C 330.47 86.05 330.18 82.95 330.07 80.54
  Q 329.96 78.18 331.21 76.14
  Q 332.80 73.52 335.33 70.93
  Q 335.65 70.59 335.76 71.05
  Q 337.08 76.84 335.78 82.45
  A 1.88 1.83 -17.8 0 1 335.34 83.28
  C 334.76 83.91 334.88 84.75 334.46 85.52
  Q 332.36 89.40 328.99 92.04
  Q 328.24 92.64 328.69 91.79
  Z"
/>
<path fill="#ffffff" d="
  M 36.13 81.13
  Q 37.43 85.49 37.25 89.63
  Q 36.90 97.69 34.01 107.03
  Q 32.94 110.51 32.06 114.12
  C 30.65 119.86 28.96 125.41 28.84 131.26
  Q 28.82 132.14 28.32 131.42
  C 24.81 126.34 24.67 117.68 25.25 112.41
  Q 26.60 99.97 28.19 93.76
  Q 30.18 86.01 32.13 78.25
  Q 32.56 76.56 33.04 75.08
  Q 33.29 74.32 33.66 75.02
  Q 35.15 77.80 36.13 81.13
  Z"
/>
<path fill="#ffffff" d="
  M 313.82 94.39
  C 314.02 95.27 314.31 95.87 314.47 96.76
  Q 316.17 106.38 316.64 110.87
  Q 317.10 115.38 316.85 122.01
  C 316.82 122.94 316.27 124.41 316.05 125.66
  Q 315.51 128.72 313.63 131.45
  Q 313.21 132.06 313.18 131.32
  Q 312.99 126.07 311.80 121.46
  Q 309.06 110.87 306.30 100.54
  Q 304.21 92.72 304.88 86.15
  Q 305.46 80.40 308.33 75.06
  Q 308.82 74.16 309.08 75.15
  Q 311.53 84.31 313.82 94.39
  Z"
/>
<path fill="#ffffff" d="
  M 0.00 93.90
  L 0.00 92.99
  Q 5.28 93.95 10.10 96.89
  Q 15.16 99.97 18.42 105.21
  Q 19.87 107.54 19.50 109.86
  Q 19.07 112.50 19.28 115.14
  Q 19.35 115.96 18.61 115.58
  Q 6.31 109.12 1.45 96.79
  Q 1.21 96.17 1.07 95.43
  Q 0.92 94.62 0.00 93.90
  Z"
/>
<path fill="#ffffff" d="
  M 342.00 92.98
  L 342.00 94.02
  Q 340.83 94.73 340.83 95.84
  Q 340.84 96.32 340.65 96.78
  Q 335.44 109.33 323.27 115.63
  Q 322.68 115.94 322.72 115.27
  Q 322.89 112.27 322.49 109.27
  C 322.29 107.70 322.67 106.11 323.72 104.90
  C 325.13 103.27 326.04 101.48 327.72 100.01
  Q 333.95 94.59 342.00 92.98
  Z"
/>
<path fill="#ffffff" d="
  M 44.34 134.68
  Q 44.97 135.48 44.87 136.43
  Q 44.80 137.03 45.11 137.54
  C 46.77 140.37 45.62 145.92 44.56 148.20
  Q 43.51 150.47 42.35 152.67
  A 0.63 0.62 -59.7 0 1 41.46 152.91
  Q 37.24 150.16 35.30 144.78
  Q 35.11 144.26 35.15 143.70
  Q 35.18 143.15 34.74 142.81
  A 0.89 0.88 -74.0 0 1 34.41 142.21
  Q 33.93 137.13 34.14 131.44
  C 34.21 129.54 35.36 128.10 35.12 126.17
  Q 35.03 125.43 35.55 124.90
  Q 36.16 124.25 36.18 123.32
  Q 36.20 122.24 36.87 123.09
  Q 38.43 125.05 40.00 126.92
  Q 42.66 130.11 43.86 133.79
  Q 44.02 134.28 44.34 134.68
  Z"
/>
<path fill="#ffffff" d="
  M 307.46 142.00
  Q 307.77 142.42 307.40 142.72
  Q 307.12 142.94 307.05 143.29
  Q 305.71 149.45 300.52 152.90
  A 0.61 0.61 0.0 0 1 299.63 152.66
  Q 298.56 150.50 297.56 148.44
  Q 296.14 145.49 296.09 140.66
  C 296.07 138.86 297.15 137.57 297.16 135.79
  Q 297.16 135.19 297.60 134.78
  C 298.25 134.17 298.14 133.24 298.56 132.41
  Q 301.11 127.36 305.24 123.09
  Q 305.87 122.43 305.82 123.35
  Q 305.77 124.26 306.45 124.90
  A 1.44 1.41 -65.0 0 1 306.89 126.14
  C 306.63 128.05 307.70 129.39 307.83 131.31
  Q 308.19 136.68 307.46 142.00
  Z"
/>
<path fill="#ffffff" d="
  M 30.15 147.43
  L 30.82 148.42
  Q 31.38 149.22 30.48 148.83
  Q 22.79 145.47 15.76 140.70
  Q 13.75 139.34 12.31 137.42
  Q 10.88 135.51 9.95 133.04
  A 0.69 0.69 0.0 0 1 10.62 132.11
  Q 12.02 132.16 13.48 132.13
  C 15.21 132.10 16.46 133.09 18.18 133.15
  Q 18.79 133.17 19.22 133.62
  Q 19.73 134.18 20.52 134.17
  Q 21.13 134.17 21.63 134.53
  L 27.28 138.59
  Q 27.71 138.90 27.82 139.42
  L 28.99 144.56
  Q 29.11 145.08 29.45 145.48
  Q 29.82 145.92 29.84 146.49
  Q 29.85 147.01 30.15 147.43
  Z"
/>
<path fill="#ffffff" d="
  M 322.63 133.80
  Q 323.19 133.02 324.23 133.11
  Q 324.91 133.17 325.54 132.89
  Q 328.01 131.77 331.21 132.12
  Q 332.32 132.24 331.95 133.29
  C 330.86 136.35 328.75 139.04 326.01 140.87
  Q 319.19 145.43 311.55 148.85
  Q 310.71 149.23 311.19 148.44
  C 311.50 147.93 311.78 147.62 312.02 147.04
  Q 313.48 143.56 314.04 139.80
  Q 314.12 139.23 314.56 138.85
  Q 317.53 136.25 320.98 134.25
  Q 321.31 134.06 321.70 134.15
  A 0.89 0.87 23.9 0 0 322.63 133.80
  Z"
/>
<path fill="#ffffff" d="
  M 54.38 144.43
  Q 54.51 144.49 54.62 144.59
  Q 54.69 144.66 54.71 144.76
  Q 55.43 150.73 54.60 156.61
  C 54.28 158.87 53.09 160.80 52.89 163.03
  Q 52.67 165.52 51.53 163.29
  Q 50.03 160.36 47.52 157.63
  Q 47.20 157.28 47.36 156.83
  C 48.27 154.38 47.89 151.97 48.78 149.49
  Q 50.19 145.54 52.73 142.24
  A 0.63 0.63 0.0 0 1 53.78 142.32
  Q 54.01 142.75 53.87 143.24
  Q 53.63 144.09 54.38 144.43
  Z"
/>
<path fill="#ffffff" d="
  M 287.96 144.09
  Q 288.22 143.53 288.12 142.88
  Q 288.07 142.50 288.29 142.21
  Q 288.50 141.94 288.84 142.00
  Q 289.14 142.04 289.32 142.28
  Q 292.01 145.84 293.38 150.09
  C 294.11 152.34 293.80 154.60 294.58 156.86
  Q 294.77 157.41 294.37 157.83
  Q 291.97 160.32 290.49 163.28
  Q 289.39 165.49 289.12 163.04
  C 288.87 160.81 287.80 158.89 287.43 156.56
  Q 286.50 150.79 287.32 144.87
  Q 287.36 144.58 287.59 144.41
  Q 287.72 144.31 287.85 144.22
  Q 287.92 144.17 287.96 144.09
  Z"
/>
<path fill="#ffffff" d="
  M 33.45 156.13
  Q 34.57 155.93 35.34 156.71
  Q 35.69 157.08 36.20 157.11
  Q 36.77 157.15 37.27 157.42
  Q 39.21 158.51 41.09 159.65
  Q 44.71 161.86 46.89 165.00
  Q 48.02 166.63 46.04 166.73
  Q 41.25 166.98 36.64 166.88
  C 34.70 166.84 33.26 165.76 31.37 165.76
  Q 30.70 165.77 30.23 165.28
  Q 29.67 164.71 28.86 164.83
  Q 28.19 164.94 27.78 164.40
  Q 27.37 163.86 26.72 163.83
  Q 26.21 163.81 25.75 163.59
  Q 19.04 160.37 11.69 152.80
  Q 10.76 151.85 12.08 152.01
  Q 17.41 152.65 23.16 153.23
  Q 24.55 153.38 25.78 153.97
  Q 26.29 154.22 26.85 154.11
  Q 28.42 153.82 29.44 154.81
  A 1.33 1.29 -28.0 0 0 30.62 155.15
  Q 31.97 154.88 32.77 155.87
  Q 33.03 156.20 33.45 156.13
  Z"
/>
<path fill="#ffffff" d="
  M 309.33 155.78
  Q 310.24 154.79 311.61 155.20
  Q 312.13 155.35 312.48 154.94
  Q 313.43 153.83 315.00 154.14
  A 2.15 2.15 0.0 0 0 316.39 153.94
  C 318.58 152.81 321.14 153.21 323.56 152.78
  Q 326.83 152.19 330.25 152.05
  Q 330.89 152.02 330.46 152.51
  Q 323.24 160.72 313.76 164.63
  Q 313.12 164.90 312.45 164.91
  Q 311.97 164.91 311.69 165.30
  Q 311.33 165.79 310.72 165.79
  C 308.85 165.79 307.47 166.80 305.66 166.85
  Q 300.73 167.00 295.86 166.74
  Q 294.06 166.64 295.03 165.12
  C 297.15 161.76 301.12 159.23 304.74 157.46
  Q 305.30 157.18 305.92 157.10
  Q 306.52 157.03 306.90 156.56
  Q 307.25 156.14 307.80 156.12
  L 308.65 156.09
  Q 309.06 156.08 309.33 155.78
  Z"
/>
<path fill="#ffffff" d="
  M 121.50 175.09
  A 0.93 0.93 0.0 0 0 120.30 174.78
  L 112.88 178.58
  Q 111.88 179.09 112.42 178.11
  Q 112.52 177.92 112.66 177.76
  Q 112.98 177.38 113.03 176.89
  L 113.51 172.36
  Q 113.56 171.84 113.92 171.45
  Q 114.43 170.88 114.15 170.19
  Q 113.98 169.76 113.61 169.48
  Q 110.76 167.26 108.24 164.59
  Q 107.84 164.16 108.38 163.92
  Q 110.96 162.77 113.52 163.16
  A 1.38 1.32 -55.2 0 0 114.41 162.98
  Q 115.21 162.50 116.18 162.30
  Q 116.76 162.17 117.03 161.64
  L 120.22 155.23
  Q 120.51 154.65 120.80 155.23
  Q 122.47 158.49 124.06 162.06
  Q 124.25 162.48 124.69 162.60
  C 127.30 163.32 129.88 162.77 132.41 163.73
  Q 133.03 163.96 132.57 164.43
  Q 129.82 167.21 127.03 169.94
  Q 126.71 170.26 126.80 170.69
  L 128.32 177.99
  Q 128.56 179.12 127.58 178.51
  Q 125.69 177.34 123.69 176.27
  C 122.88 175.84 122.04 175.90 121.50 175.09
  Z"
/>
<path fill="#ffffff" d="
  M 222.28 174.86
  Q 221.03 174.41 220.29 175.31
  A 1.37 1.34 -81.0 0 1 219.75 175.71
  Q 216.98 176.82 214.70 178.37
  Q 213.45 179.22 213.84 177.75
  Q 214.23 176.29 214.16 174.80
  Q 214.13 174.22 214.40 173.70
  Q 215.13 172.27 215.23 170.79
  Q 215.26 170.25 214.88 169.87
  L 209.41 164.40
  Q 209.00 164.00 209.53 163.77
  Q 211.01 163.12 212.44 163.15
  Q 214.69 163.20 217.05 162.68
  Q 217.61 162.55 217.87 162.04
  L 221.19 155.26
  Q 221.49 154.66 221.78 155.25
  L 224.95 161.61
  Q 225.14 161.99 225.55 162.15
  C 226.82 162.66 228.05 163.24 229.46 163.14
  Q 231.49 162.99 233.59 163.80
  A 0.48 0.48 0.0 0 1 233.77 164.58
  Q 231.21 167.28 228.53 169.35
  Q 227.95 169.80 227.78 170.52
  Q 227.65 171.07 228.05 171.47
  Q 228.42 171.82 228.48 172.33
  L 228.99 176.81
  Q 229.06 177.35 229.33 177.81
  L 229.56 178.18
  Q 230.04 178.98 229.19 178.57
  Q 225.96 177.01 222.84 175.43
  Q 222.71 175.36 222.62 175.24
  Q 222.55 175.13 222.48 175.02
  Q 222.41 174.91 222.28 174.86
  Z"
/>
<path fill="#ffffff" d="
  M 171.67 174.96
  A 1.41 1.38 44.8 0 0 170.40 174.95
  L 164.36 178.00
  A 1.13 1.11 2.8 0 0 163.90 178.41
  L 163.69 178.74
  Q 163.50 179.05 163.18 178.90
  Q 163.05 178.84 162.94 178.77
  Q 162.85 178.71 162.88 178.61
  Q 164.19 174.76 164.21 171.37
  Q 164.21 170.99 164.40 170.65
  Q 164.68 170.14 164.27 169.69
  Q 161.44 166.58 158.59 164.27
  A 0.39 0.38 61.5 0 1 158.79 163.59
  L 165.82 162.77
  A 2.32 2.31 9.4 0 0 167.63 161.48
  L 170.63 155.36
  A 0.41 0.41 0.0 0 1 171.36 155.36
  L 174.47 161.70
  A 1.45 1.43 89.1 0 0 175.12 162.34
  Q 176.24 162.89 177.50 162.99
  Q 180.22 163.21 183.11 163.59
  A 0.39 0.38 -62.9 0 1 183.32 164.26
  L 177.96 169.29
  Q 177.55 169.67 177.59 170.23
  Q 177.90 174.56 178.99 178.39
  Q 179.23 179.21 178.47 178.82
  Q 178.16 178.67 178.01 178.33
  A 0.52 0.52 0.0 0 0 177.77 178.06
  L 171.67 174.96
  Z"
/>
<path fill="#ffffff" d="
  M 53.32 170.20
  Q 56.91 172.56 58.74 176.30
  Q 60.64 180.16 67.18 183.57
  Q 69.24 184.65 68.04 186.65
  L 67.67 187.27
  Q 66.03 189.99 63.26 188.42
  Q 60.71 186.98 58.46 185.20
  Q 55.87 183.16 53.77 180.18
  Q 50.38 175.37 45.81 171.54
  Q 45.45 171.24 45.92 171.21
  Q 48.68 171.03 51.93 170.00
  A 1.64 1.63 53.0 0 1 53.32 170.20
  Z"
/>
<path fill="#ffffff" d="
  M 287.75 170.80
  Q 288.81 169.90 290.19 170.03
  Q 291.99 170.19 293.51 170.91
  Q 293.97 171.12 294.47 171.12
  L 295.80 171.12
  Q 296.83 171.13 296.02 171.77
  C 294.26 173.15 292.66 174.55 291.25 176.33
  Q 289.09 179.07 286.89 181.87
  C 285.17 184.07 283.14 185.47 280.99 187.10
  C 280.04 187.83 278.83 187.92 278.02 188.86
  Q 277.70 189.23 277.22 189.12
  Q 274.41 188.47 273.50 185.64
  Q 273.36 185.20 273.63 184.83
  Q 274.58 183.53 276.06 182.83
  C 277.73 182.03 279.15 180.74 280.66 179.69
  C 282.70 178.25 283.10 175.85 284.59 174.03
  Q 286.04 172.27 287.75 170.80
  Z"
/>
</svg>
