<?xml version="1.0" encoding="UTF-8"?>
<!DOCTYPE svg PUBLIC "-//W3C//DTD SVG 1.1//EN" "http://www.w3.org/Graphics/SVG/1.1/DTD/svg11.dtd">
<svg xmlns="http://www.w3.org/2000/svg" version="1.1" width="489px" height="597px" style="shape-rendering:geometricPrecision; text-rendering:geometricPrecision; image-rendering:optimizeQuality; fill-rule:evenodd; clip-rule:evenodd" xmlns:xlink="http://www.w3.org/1999/xlink">
<g><path style="opacity:1" fill="#040404" d="M 226.5,23.5 C 284.692,20.3447 329.525,43.0113 361,91.5C 383.692,133.771 385.359,177.104 366,221.5C 336.448,275.705 290.614,301.538 228.5,299C 170.632,291.412 131.299,260.412 110.5,206C 93.4657,147.46 107.132,97.4595 151.5,56C 173.416,38.0421 198.416,27.2087 226.5,23.5 Z M 229.5,52.5 C 274.154,49.9123 308.987,66.9123 334,103.5C 341.048,114.934 345.881,127.268 348.5,140.5C 338.102,148.022 326.435,152.855 313.5,155C 277.146,161.001 245.479,151.668 218.5,127C 213.289,124.234 207.956,123.901 202.5,126C 182.935,144.611 159.602,154.778 132.5,156.5C 139.39,97.9475 171.724,63.2808 229.5,52.5 Z M 207.5,158.5 C 212.703,159.84 217.37,162.34 221.5,166C 262.797,188.811 305.463,191.645 349.5,174.5C 342.862,216.306 320.196,245.806 281.5,263C 234.99,278.568 194.49,269.068 160,234.5C 147.586,220.338 139.419,204.005 135.5,185.5C 162.336,183.561 186.336,174.561 207.5,158.5 Z"/></g>
<g><path style="opacity:1" fill="#040404" d="M 225.5,330.5 C 317.851,328.246 388.351,365.913 437,443.5C 457.501,479.837 467.168,518.837 466,560.5C 464.073,565.428 460.573,568.594 455.5,570C 312.833,570.667 170.167,570.667 27.5,570C 19.7051,567.536 15.7051,562.202 15.5,554C 17.9962,484.015 45.6629,426.348 98.5,381C 135.717,351.395 178.05,334.562 225.5,330.5 Z M 229.5,359.5 C 317.06,358.67 380.56,397.003 420,474.5C 429.74,495.795 435.24,518.128 436.5,541.5C 306.5,541.667 176.5,541.5 46.5,541C 52.2711,475.576 82.6044,424.909 137.5,389C 165.993,372.001 196.66,362.168 229.5,359.5 Z"/></g>
</svg>
