<?xml version="1.0" encoding="UTF-8"?>
<!DOCTYPE svg PUBLIC "-//W3C//DTD SVG 1.1//EN" "http://www.w3.org/Graphics/SVG/1.1/DTD/svg11.dtd">
<svg xmlns="http://www.w3.org/2000/svg" version="1.1" width="256px" height="256px" style="shape-rendering:geometricPrecision; text-rendering:geometricPrecision; image-rendering:optimizeQuality; fill-rule:evenodd; clip-rule:evenodd" xmlns:xlink="http://www.w3.org/1999/xlink">
<g><path style="opacity:0.945" fill="#000000" d="M 91.5,85.5 C 96.2391,88.7308 100.572,92.5642 104.5,97C 97.1667,104.333 89.8333,111.667 82.5,119C 121.832,119.5 161.165,119.667 200.5,119.5C 200.5,125.167 200.5,130.833 200.5,136.5C 161.165,136.333 121.832,136.5 82.5,137C 89.8333,144.333 97.1667,151.667 104.5,159C 100.667,162.833 96.8333,166.667 93,170.5C 80.3333,157.833 67.6667,145.167 55,132.5C 54.3333,129.167 54.3333,125.833 55,122.5C 67.3687,110.298 79.5353,97.9651 91.5,85.5 Z"/></g>
</svg>
